<?xml version="1.0" encoding="utf-8"?>
<!-- Generator: Adobe Illustrator 23.1.1, SVG Export Plug-In . SVG Version: 6.00 Build 0)  -->
<svg version="1.1" id="Layer_1" xmlns="http://www.w3.org/2000/svg" xmlns:xlink="http://www.w3.org/1999/xlink" x="0px" y="0px"
	 viewBox="0 0 612 792" style="enable-background:new 0 0 612 792;" xml:space="preserve">
<style type="text/css">
	.st0{fill:#232323;}
	.st1{fill:#E0E0DF;}
	.st2{fill:#DCDBDB;}
	.st3{fill:#D7D6D6;}
	.st4{fill:#D7D8D8;}
	.st5{fill:#C9C9C9;}
	.st6{fill:#D6D5D5;}
	.st7{fill:#FFFFFF;}
	.st8{fill:#969696;}
	.st9{fill:#C2C1C1;}
	.st10{fill:#A1A0A0;}
	.st11{fill:#939292;}
	.st12{fill:#9B9C9C;}
	.st13{fill:#9F9F9F;}
	.st14{fill:#BBBBBB;}
	.st15{fill:#D2D2D2;}
	.st16{fill:#989898;}
	.st17{fill:#F3F3F0;}
	.st18{fill:#2C2C28;}
	.st19{fill:#2D2D2A;}
	.st20{fill:#21221F;}
	.st21{fill:#222320;}
	.st22{fill:#1E1E1C;}
	.st23{fill:#282826;}
	.st24{fill:#2B2B28;}
	.st25{fill:#23221F;}
	.st26{fill:#242422;}
	.st27{fill:#22211E;}
	.st28{fill:#252522;}
	.st29{fill:#232320;}
	.st30{fill:#2A2825;}
	.st31{fill:#2A2927;}
	.st32{fill:#232321;}
	.st33{fill:#272724;}
	.st34{fill:#2A2A27;}
	.st35{fill:#2E2D2C;}
	.st36{fill:#262522;}
	.st37{fill:#20211E;}
	.st38{fill:#323331;}
	.st39{fill:#282624;}
	.st40{fill:#2E2929;}
	.st41{fill:#252523;}
	.st42{fill:#323230;}
	.st43{fill:#292825;}
	.st44{fill:#272725;}
	.st45{fill:#262623;}
	.st46{fill:#272824;}
	.st47{fill:#333432;}
	.st48{fill:#31312E;}
	.st49{fill:#1D1D1A;}
	.st50{fill:#262624;}
	.st51{fill:#292926;}
	.st52{fill:#2E2D2B;}
	.st53{fill:#252622;}
	.st54{fill:#232420;}
	.st55{fill:#272523;}
	.st56{fill:#232220;}
	.st57{fill:#2C2C29;}
	.st58{fill:#21201E;}
	.st59{fill:#2A2B25;}
	.st60{fill:#1F1F1C;}
	.st61{fill:#2C2A28;}
	.st62{fill:#2B2B29;}
	.st63{fill:#2E2E2C;}
	.st64{fill:#2F2D2B;}
	.st65{fill:#282923;}
	.st66{fill:#302F2D;}
	.st67{fill:#2F2F2B;}
	.st68{fill:#2E2D29;}
	.st69{fill:#232421;}
	.st70{fill:#282925;}
	.st71{fill:#201F1D;}
	.st72{fill:#3E3E3B;}
	.st73{fill:#353532;}
	.st74{fill:#383835;}
	.st75{fill:#32332D;}
	.st76{fill:#2F2F2C;}
	.st77{fill:#2D2E2A;}
	.st78{fill:#323330;}
	.st79{fill:#32332E;}
	.st80{fill:#20211B;}
	.st81{fill:#282824;}
	.st82{fill:#32302E;}
	.st83{fill:#2D2E29;}
	.st84{fill:#343432;}
	.st85{fill:#292923;}
	.st86{fill:#363633;}
	.st87{fill:#3B3A37;}
	.st88{fill:#41423D;}
	.st89{fill:#3E3E3C;}
	.st90{fill:#444442;}
	.st91{fill:#393836;}
	.st92{fill:#393937;}
	.st93{fill:#EEEEEB;}
	.st94{fill:#343431;}
	.st95{fill:#2A2B27;}
	.st96{fill:#2B2B2A;}
	.st97{fill:#41413F;}
	.st98{fill:#2D2C2A;}
	.st99{fill:#292925;}
	.st100{fill:#131410;}
	.st101{fill:#262724;}
	.st102{fill:#2C2E2B;}
	.st103{fill:#32322F;}
	.st104{fill:#333230;}
	.st105{fill:#3D3D3A;}
	.st106{fill:#484943;}
	.st107{fill:#373833;}
	.st108{fill:#2F302B;}
	.st109{fill:#2C2C27;}
	.st110{fill:#454541;}
	.st111{fill:#43443F;}
	.st112{fill:#34342F;}
	.st113{fill:#3B3C37;}
	.st114{fill:#363732;}
	.st115{fill:#353631;}
	.st116{fill:#31312F;}
	.st117{fill:#31322D;}
	.st118{fill:#2F2E2D;}
	.st119{fill:#2A2C28;}
	.st120{fill:#272924;}
	.st121{fill:#242420;}
	.st122{fill:#F2F3EF;}
	.st123{fill:#50504E;}
	.st124{fill:#10100F;}
	.st125{fill:#424240;}
	.st126{fill:#252520;}
	.st127{fill:#131412;}
	.st128{fill:#EDEDE9;}
	.st129{fill:#2D2D28;}
	.st130{fill:#40413C;}
	.st131{fill:#4B4B49;}
	.st132{fill:#363533;}
	.st133{fill:#464742;}
	.st134{fill:#3F403B;}
	.st135{fill:#353432;}
	.st136{fill:#3F3F3D;}
	.st137{fill:#21221E;}
	.st138{fill:#2F2E2C;}
	.st139{fill:#434341;}
	.st140{fill:#3C3D38;}
	.st141{fill:#33332F;}
	.st142{fill:#393A35;}
	.st143{fill:#3C3C3A;}
	.st144{fill:#151612;}
	.st145{fill:#0D0D0B;}
	.st146{fill:#353530;}
	.st147{fill:#595856;}
	.st148{fill:#2A2B26;}
	.st149{fill:#1C1D19;}
	.st150{fill:#333331;}
	.st151{fill:#454642;}
	.st152{fill:#3A3A38;}
	.st153{fill:#545452;}
	.st154{fill:#444540;}
	.st155{fill:#373633;}
	.st156{fill:#44453F;}
	.st157{fill:#31322C;}
	.st158{fill:#3B3B38;}
	.st159{fill:#141512;}
	.st160{fill:#444341;}
	.st161{fill:#464741;}
	.st162{fill:#565751;}
	.st163{fill:#3E3F39;}
	.st164{fill:#41413D;}
	.st165{fill:#393935;}
	.st166{fill:#2E2F2C;}
	.st167{fill:#6A6A66;}
	.st168{fill:#232221;}
	.st169{fill:#41423C;}
	.st170{fill:#24241E;}
	.st171{fill:#F8F8F3;}
	.st172{fill:#383936;}
	.st173{fill:#393A33;}
	.st174{fill:#262723;}
	.st175{fill:#292A27;}
	.st176{fill:#C7C7C3;}
	.st177{fill:#CBCAC8;}
	.st178{fill:#353632;}
	.st179{fill:#232122;}
</style>
<path class="st0" d="M288.18,275.41c0,0-15.51,4.51-18.61,10.53c-3.1,6.02-23.27,40.63-24.82,49.66c-1.55,9.03-3.1,42.14-6.2,58.69
	c-3.1,16.55,4.65,61.7,9.31,70.73c4.65,9.03,18.61,31.6,23.27,34.61c4.65,3.01,29.47,15.05,40.33,13.55
	c10.86-1.51,26.37-6.02,37.23-18.06c10.86-12.04,20.17-22.57,23.27-33.11c3.1-10.53,13.96-43.64,13.96-54.18s3.1-33.11,0-43.64
	c-3.1-10.53-15.51-43.64-24.82-54.18c-9.31-10.54-15.51-27.09-31.02-31.6c-15.51-4.52-15.51-3.01-26.37-3.01
	S288.18,275.41,288.18,275.41z"/>
<path class="st1" d="M246.02,427.04c-2.04-11.69-3.11-15.99-0.73-27.72"/>
<path class="st2" d="M381.59,373.58c-1.16-3-3.37-5.88-1.8-10.24C381.72,367.18,382.35,370.26,381.59,373.58z"/>
<path class="st3" d="M370.74,350.66c-3.85-13.26-7.94-25.18-16.84-34.4C360.43,316.62,372.68,339.93,370.74,350.66z"/>
<path class="st4" d="M296.29,508.33c-9.12-5.59-20.94-8.71-26-19.16L296.29,508.33z"/>
<path class="st5" d="M333.58,500.84c2.49-2.54,5.44-4.24,11.07-6.4C343.22,498.11,339.9,500.03,333.58,500.84z"/>
<path class="st6" d="M280.01,285.08c4.28-6.75,10.28-9.75,19.28-6.75C292.29,278.33,285.39,280.23,280.01,285.08z"/>
<path class="st3" d="M370.22,451.22c2.59-7.33,3.07-14.9,8.07-24.9C376.29,432.33,375.63,449.12,370.22,451.22z"/>
<path class="st2" d="M247.03,341.62c0.32-3.59-0.37-7.48,3.08-11.38C250.09,335.02,249.25,338.48,247.03,341.62z"/>
<g>
	<path class="st7" d="M272.97,367.25c-0.39,0.15-2.51,0.05-2.95,0.05c-2.95,0-4.22,0.14-9.82-1.79c-0.79-0.29-4.17-3.04-4.91-4.35
		c-1.23-2.22-3.14-8.26-3.14-9.46c0-0.39,0.64-2.9,0.79-4.35c0.25-2.66,0.34-6.04,4.32-8.79c2.01-1.45,4.03-2.12,5.89-2.7
		c0.79-0.24,1.62-1.01,2.46-1.16c2.41-0.48,7.07-0.87,7.51-0.87c3.05,0,8.2,2.95,9.23,6.28c0.1,0.39,0.44,0.72,0.79,1.06
		c-1.08-0.14-4.08,2.12-5.16,2.12c-0.34,0-2.06-2.27-3.78-2.85c-1.23-0.43-4.47-0.53-4.86-0.53c-4.08,0-6.39,1.06-10.61,6.52
		c-0.34,0.43-1.18,4.06-1.18,5.75c0,6.13,7.51,10.48,12.38,10.48c2.6,0,7.76-1.93,9.04-4.97c1.28,0.68,2.85,1.35,4.32,2.12
		C282.45,364.54,275.92,366.18,272.97,367.25z"/>
	<path class="st7" d="M294.51,364.33c-2.09,0-3.95-0.21-6.44-2.74c-0.27-0.29-0.89-0.42-1.29-0.76c-1.55-1.43-3.11-2.15-3.91-3.87
		c-0.49-1.05-1.64-5.73-1.64-7.54c0-1.6,0.44-3.07,1.86-5.6c0.89-1.64,2.75-4.55,5.15-5.77c2.04-1.01,5.37-2.82,8.03-2.82
		c0.31,0,3.28,0.21,4.35,0.63c2.66,0.97,7.68,3.92,9.32,7.58c1.2,2.78,1.33,3.16,1.33,5.18
		C311.29,358.68,304.41,364.33,294.51,364.33z M305.56,347.27c-0.4-0.88-1.24-1.68-1.46-2.48c-0.31-0.93-1.33-2.53-2.57-2.99
		c-0.53-0.21-1.42-0.67-1.91-0.72c-1.55-0.17-5.06-0.34-5.37-0.34c-0.44,0-1.42,0.17-1.91,0.38c-3.06,0.08-6.75,6.9-6.75,9.26
		c0,0.63,1.42,3.2,1.55,3.41c2.44,4.13,7.5,5.85,10.3,5.85c4.88,0,8.79-5.81,8.79-9.39C306.23,349.93,306.01,348.2,305.56,347.27z"
		/>
	<path class="st7" d="M328.6,354.8c-1.08,0.62-4.22,2.39-4.59,2.49l-8.43,2.19l-0.42-1.62c-0.21-0.81,0-3.6-1.76-10.4
		c-0.09-0.36-4.35-12.56-4.44-12.92c-0.08-0.32-0.59-3.98-0.71-5.96c0.06-0.16,0.15-0.38,0.52-0.47c3.01-0.78,6.02-0.8,7.75-1
		c11.55-1.41,17.17,4.62,19.15,12.22C337.12,344.96,337.44,349.82,328.6,354.8z M327.75,334.03c-3.52-2.69-8.5-1.88-12.81-2.1
		c-0.04,1.16,0.06,2.91,0.15,3.23c0.55,2.11,4.82,16.47,5.21,17.57c3.87-1.29,6.9-3.52,8.32-5.67c1.52-2.32,1.69-4.33,0.99-7.03
		c-0.21-0.81-0.25-2.48-0.33-2.8C329.04,336.34,328.55,334.64,327.75,334.03z"/>
	<path class="st7" d="M354.61,325.73l-9.12,2.21c-1.66,0.45-2.11,0.44-4.34,1.74c0.07,1.71,0.68,3.96,1.07,5.59
		c0.07,0.24-0.17,0.48-0.08,0.8c0.13,0.48,1.07,0.66,1.35,0.59c0.37-0.1,3.37-1.3,3.74-1.4c0.37-0.1,3.99-0.82,4.36-0.92
		c0.37-0.1,3.13-0.89,6.97-2.11l-0.09,0.2c0.34,0.51,0.62,1.56,0.71,1.88c0.15,0.56,0.53,2.15,0.03,2.67l-4.44,1.2
		c-0.37,0.1-4.58,0.68-4.95,0.78c-7.26,1.97-5.22,0.68-4.38,8.75c0.73,0.32,4.22-0.37,4.49-0.44c0.37-0.1,3.12-1.11,9.71-2.63
		c0.46-0.13,1.15-0.14,1.74-0.17c0.34,0.51,0.53,1.41,0.83,2.15c0.12,0.27,0.58,0.49,0.67,0.81l0.19,0.68l-21.22,5.75
		c-0.26-0.06-0.35-0.21-0.52-0.29c-0.41-1.14-0.59-3.64-0.93-4.89c-1.75-5.92-5.38-17.64-5.46-17.96c-0.08-0.28-0.35-2.58-0.67-3.75
		c3.32-1.29,9.96-3.69,10.33-3.79c0.37-0.1,7.46-1.59,11.3-2.41C356.72,324.55,358.03,324.8,354.61,325.73z"/>
	<path class="st7" d="M259.92,412.34c-0.34,0-3.7-0.83-4.03-0.83c-0.34,0-0.77,0.1-1.2,0.63c-0.05,1.51-0.34,4.07-0.34,4.49v6.78
		c0,0.84,0.91,2.5-0.38,2.92h-4.71c0-0.68-0.14-1.57-0.14-2.09c-0.38-12.21-0.34-7.62-0.34-13.67v-5.32c0-0.42-0.24-0.89-0.29-1.36
		c-0.24-2.03-0.19-6-0.19-6.42c0-0.37,0-4.43,0.38-6.63c0.24-0.21,0.62-0.37,1.01-0.37c0.38,0,2.02,0.37,2.4,0.37
		c0.77,0,4.76-0.78,6.05-0.42c0.43,0.16,1.15-0.1,1.54-0.1c0.34,0,3.07,0.52,4.23,0.78c6,1.46,7.01,5.43,7.01,9.81
		C270.92,407.07,264.14,412.34,259.92,412.34z M258.14,396.38c-0.38,0-2.4,0.37-3.46,0.52c-0.14,0.84-0.19,2.4-0.19,2.77
		c0,1.67,0.48,5.43,0.53,6.1c0.1,0.16,0.29,0.21,0.43,0.37c3.36-0.05,9.27,0.68,9.27-5.32
		C264.72,397.21,259.25,396.38,258.14,396.38z"/>
	<path class="st7" d="M280.38,431.33c-1.85,0-3.51-0.24-5.72-3.09c-0.24-0.33-0.79-0.48-1.14-0.86c-1.38-1.62-2.76-2.43-3.47-4.38
		c-0.43-1.19-1.46-6.47-1.46-8.52c0-1.81,0.39-3.47,1.66-6.33c0.79-1.86,2.45-5.14,4.58-6.52c1.81-1.14,4.77-3.19,7.14-3.19
		c0.28,0,2.92,0.24,3.87,0.71c2.37,1.09,6.82,4.43,8.28,8.57c1.06,3.14,1.18,3.57,1.18,5.86
		C295.29,424.95,289.17,431.33,280.38,431.33z M290.2,412.04c-0.36-1-1.1-1.9-1.3-2.81c-0.28-1.05-1.18-2.86-2.29-3.38
		c-0.47-0.24-1.26-0.76-1.7-0.81c-1.38-0.19-4.5-0.38-4.77-0.38c-0.39,0-1.26,0.19-1.7,0.43c-2.72,0.09-6,7.81-6,10.47
		c0,0.71,1.26,3.62,1.38,3.86c2.17,4.66,6.67,6.62,9.15,6.62c4.34,0,7.81-6.57,7.81-10.62C290.79,415.04,290.59,413.09,290.2,412.04
		z"/>
	<path class="st7" d="M310.18,394.16c-0.4,0.05-4.5,0.44-4.9,0.5c-0.76,0.1-2.09,0.12-2.73,1.01c0.45,3.33,0.62,7.71,0.85,10.15
		c0.12,1.27,0.98,3.9,1.03,4.27l1.55,11.56c0.11,0.79-0.19,3.57,0.51,3.8c-2.69,0.2-3.94,0.42-5.63,0.81
		c-0.51-1.54-0.53-3.58-1.06-5.61c-0.14-0.63,0.12-1.41-0.37-3.93c-2.15-11.05-1.06-9.05-1.66-13.53c-0.05-0.37-0.79-4.78-1.61-6.66
		c-0.28-0.55-2.3-0.34-2.8-0.27c-0.4,0.05-2.9,0.93-3.3,0.98c-0.4,0.05-1.87-0.18-2.9-0.2l-0.52-3.85
		c-0.19-1.43,1.57-2.47,2.32-2.57c0.45-0.06,12.25-1.1,12.66-1.16c0.35-0.05,5.52-0.9,8.11-1.46c0.47,0.85,1.1,2.86,1.19,3.5
		C310.96,392.02,311.18,394.03,310.18,394.16z"/>
	<path class="st7" d="M331.96,422.15c-0.97-1.22-1.85-3.03-2.53-4.52c-6.89,1.02-11.07,0.49-12.66,1.85
		c-1.14,0.96-0.71,3.11-1.23,4.69l-6.97,0.86c2.47-7.52,4.02-18.59,5.25-25.96c0.24-1.6,1.97-5.42,2.87-8.33
		c0.55-1.76,1.19-4.63,1.82-7.03c0.46,0.18,1.33,1,1.68,1.6c0.83,1.41,1.42,3.55,2.22,5.14c0.74,1.54,2.73,4.38,3.82,6.52
		c3.66,7.46,7.34,15.51,12.38,24.38L331.96,422.15z M323.45,406.43c-0.7-1.66-1.78-3.74-2.8-5.36c-1.06,3.86-0.82,7.61-2.15,11.09
		c2.04-0.37,5.22-0.35,7.53-0.75C325.12,409.78,324.13,407.98,323.45,406.43z"/>
	<path class="st7" d="M351.3,385.32c-0.45,0.07-5.06,0.66-5.51,0.74c-0.85,0.14-2.34,0.22-3.07,1.11c0.51,3.13,0.71,7.28,0.97,9.59
		c0.14,1.2,1.11,3.65,1.17,3.99l1.76,10.89c0.12,0.75-0.21,3.4,0.58,3.58c-3.02,0.33-4.43,0.61-6.33,1.07
		c-0.58-1.44-0.6-3.37-1.2-5.26c-0.15-0.59,0.13-1.35-0.42-3.71c-2.43-10.37-1.2-8.53-1.88-12.75c-0.06-0.35-0.9-4.5-1.82-6.24
		c-0.31-0.51-2.58-0.2-3.15-0.1c-0.45,0.07-3.26,1.03-3.71,1.11s-2.1-0.07-3.25-0.04l-0.59-3.63c-0.22-1.34,1.76-2.43,2.6-2.56
		c0.51-0.08,13.76-1.71,14.22-1.78c0.4-0.06,6.2-1.15,9.1-1.83c0.53,0.78,1.24,2.66,1.34,3.25
		C352.18,383.24,352.43,385.14,351.3,385.32z"/>
	<path class="st7" d="M363.4,416.33c-2.1,0-3.98-0.24-6.48-3.09c-0.27-0.33-0.89-0.48-1.3-0.86c-1.56-1.62-3.13-2.43-3.93-4.38
		c-0.49-1.19-1.65-6.47-1.65-8.52c0-1.81,0.45-3.47,1.88-6.33c0.89-1.86,2.77-5.14,5.18-6.52c2.06-1.14,5.41-3.19,8.09-3.19
		c0.31,0,3.31,0.24,4.38,0.71c2.68,1.09,7.73,4.43,9.38,8.57c1.21,3.14,1.34,3.57,1.34,5.86
		C380.29,409.95,373.36,416.33,363.4,416.33z M374.52,397.04c-0.4-1-1.25-1.9-1.47-2.81c-0.31-1.05-1.34-2.86-2.59-3.38
		c-0.54-0.24-1.43-0.76-1.92-0.81c-1.56-0.19-5.09-0.38-5.41-0.38c-0.45,0-1.43,0.19-1.92,0.43c-3.08,0.09-6.79,7.81-6.79,10.47
		c0,0.71,1.43,3.62,1.56,3.86c2.46,4.66,7.55,6.62,10.37,6.62c4.92,0,8.85-6.57,8.85-10.62
		C375.19,400.04,374.97,398.09,374.52,397.04z"/>
</g>
<path class="st8" d="M258.8,315.08c-0.19-4.17,3.18-7.03,4.07-10.84c0.21-0.9,1.73-1.75,2.93-1c1.2,0.76,0.16,1.68-0.15,2.55
	c-1.33,3.79-4.49,6.83-4.66,11.13c0,0.06-1.15,0.08-1.77,0.11C257.02,316.84,258.33,315.87,258.8,315.08z"/>
<path class="st9" d="M271.2,293.02c0.02,2.33,0.97,4.77-1.43,6.33c-1.21,0.79-1.23,3.79-3.27,2.63c-1.74-0.99,0.71-2.4,0.83-3.83
	C267.52,295.93,269.58,294.53,271.2,293.02z"/>
<path class="st10" d="M257.01,313.85c0.6,0.41,1.19,0.82,1.79,1.23c0.4,0.6-0.57,1.49,0.43,1.96c0.04,0.74,0.39,1.84,0.04,2.16
	c-0.74,0.66-1.49,0.04-1.78-0.8C256.99,316.93,256.14,315.47,257.01,313.85"/>
<path class="st11" d="M337.3,287.83c-1.92,2.95-3-0.02-3.8-0.82c-2.79-2.8,1.59-2.76,1.49-5.24c1.48,2.4,0.81,4.74,2.33,6.13
	L337.3,287.83z"/>
<path class="st12" d="M337.32,287.9c0.05-0.9,0.1-1.81,0.15-2.71c1.02,2.36,3.96,2.76,5.04,5.25c-2.99,1.02-4.38-0.26-5.22-2.6
	C337.3,287.83,337.32,287.9,337.32,287.9z"/>
<path class="st13" d="M329.11,286.32c-2.57-1.37-2.57-1.37-2.26-5.73c1.25,0.68,0.43,2.89,2.1,3.19
	C330.51,284.47,329.89,285.39,329.11,286.32z"/>
<path class="st14" d="M329.11,286.32c0.06-0.86,0.5-1.76-0.17-2.54c0.01-0.64-0.21-1.45,0.08-1.88c0.51-0.78,0.89-0.36,1.08,0.43
	c0.44,1.8,0.96,3.59,1.6,5.96C330.51,287.38,329.81,286.85,329.11,286.32z"/>
<path class="st15" d="M260,480.13c-2.2-2.8-2.85-6.03-3.03-10.86C259.3,473.51,259.67,476.81,260,480.13z"/>
<path class="st3" d="M261.08,475.46c2.39,5.06,2.55,5.63,2.08,7.2C260.86,481.15,260.82,478.98,261.08,475.46z"/>
<path class="st16" d="M265.44,474.51c1.44,3.03,2.44,5.14,3.48,7.33C266.15,480.23,266.15,480.23,265.44,474.51z"/>
<g>
	<g>
		<path class="st17" d="M187.44,330.14c-1.82,1.65-3.78,2.61-6.39,0.56c0.34,2.02,2.64,3.19,0.39,4.57
			c-5.03,1.55-8.52-2.67-12.44-3.54c5.13,2.5,10.87,4.7,16.49,7.21c1.96,0.88,4.09,1.56,4.96,3.99c-1.07,1.48,0.91,5.1-2.9,4.65
			c1.01,2.38-4.44,2.69-1.47,6.25c1.56,1.87-1.91,3.22-2.91,4.94c-3.7,2.38-7.06-0.39-10.5-0.99c-3.71-0.65-7.38-1.83-10.7-2.72
			c3.94,1.53,8.84,1.32,12.49,4.83c-1.79,2.19-0.8,6.19-4.21,7.34c-6.15,2.22-11.92-1.11-17.89-1.53c-2.35-0.16-5.44,0.62-6.96-2.58
			c3.46-3.56,1.42-7.16,0.06-10.75c0.47-1.11-0.32-2.11-0.23-3.19c1.41-0.5,4.45-3.92,6.35-7.14c2.08,1.2,1.43,5.69,5.07,4.91
			c3.03-0.65,0.47-2.78,0.81-4.16c1.65-1.84,3.37-0.63,5.07-0.13c5.11,1.52,10.19,3.12,15.08,5.35c-8.75-4.09-18.08-6.32-27.05-9.68
			c-1.76-0.66-3.48-1.11-5.34-0.95c-1.37-2.38,0.48-4.14,1.49-5.52c2.26-3.08,1.92-5.63-0.24-8.34c1.91-1.26,3.18,0.11,4.52,1.22
			c1.69,1.91-0.38,6.37,3.9,6.62c0.98-1.79-0.8-2.88-0.86-4.34c-0.17-2.48-2.24-2.6-3.74-3.43c-0.85-0.47-2.52-0.28-1.67-2.21
			c0.83,0,1.66,0,2.47,0c0.13-0.29,0.39-0.7,0.33-0.77c-1.54-1.61-3.44-3.07-1.7-5.77c1.31,1.57,3.44,1.51,4.9,3.06
			c1.97,2.09,0.67,6.06,3.99,7.26c3.29-3.1-1.35-6.93,0.84-10.07c0.74-0.95,1.72-1.03,2.69-0.68c1.65,0.59,0.9-0.7,1-1.34
			c3.39-1.4,4.86-4.94,7.3-7.41c1.22-0.93,2.27-0.08,3.18,0.54c6.92,4.74,14.27,8.76,20.8,14.15c2.42,1.5,1.6,5.59,4.9,6.64
			c0.97,0.31,0.3,1.81-1.06,1.85c-1.19,0.04-2.35,0.09-2.94,1.48c-2.11,1.35-3.96-0.02-5.54-1.02c-3.84-2.43-8.03-4.09-11.39-6.27
			C180.69,325.83,186.06,325.09,187.44,330.14z"/>
		<path class="st18" d="M175.39,277.68c-0.8-0.17-2.14-0.1-2.31-0.55c-4.58-11.86-16.26-16.07-23.69-24.87
			c-3.07-3.63-7.03-6.4-10.55-9.6c-0.7-0.63-1.93-1.34-0.97-2.5c0.93-1.12,1.76,0.01,2.48,0.66c8.72,7.83,17.43,15.67,26.14,23.51
			c3.52,3.17,7.07,6.31,10.52,9.56c0.68,0.64,1.52,1.88,1.35,2.59C178.02,277.92,176.59,277.76,175.39,277.68z"/>
		<path class="st19" d="M198.28,275.94c0.2,0.9,1.23,1.69,0.41,2.72c-0.67,0.85-1.43,0.15-2.16,0.03
			c-12.24-13.19-24.47-26.37-36.71-39.56c0.4-0.45,0.8-0.9,1.19-1.34c4.13,2.61,6.94,6.93,10.48,10.3c3.71,3.53,7.25,7.26,10.76,11
			c3.48,3.7,6.83,7.53,10.24,11.3C195.05,271.51,196.84,273.52,198.28,275.94L198.28,275.94z"/>
		<path class="st20" d="M122.58,530.96c14.1-11.86,28.58-23.16,43.69-33.53c0.37,0.54,0.74,1.08,1.1,1.62
			c-14.49,11.23-28.97,22.45-43.46,33.68C123.47,532.15,123.02,531.55,122.58,530.96z"/>
		<path class="st21" d="M382.22,557.36c-4.21-9.44-8.42-18.88-12.62-28.33c0.45-0.27,0.91-0.54,1.36-0.81
			c6.43,10.17,10.54,21.79,16.4,32.32c1.54,6.74,6.62,11.84,8.04,18.64c-0.42,0.26-0.85,0.52-1.27,0.78
			C390.15,572.42,386.19,564.89,382.22,557.36z"/>
		<path class="st22" d="M452.31,234.5c-12.95,15.71-26.66,30.62-41.6,44.22C423.52,262.87,437.33,248.08,452.31,234.5z"/>
		<path class="st23" d="M145.23,349.17c0.9,1.11,3.34,0.17,3.26,2.15c-0.09,2.07-2.05,0.48-3.03,1.04
			c-14.92-4.43-30.35-6.89-44.86-13.03c3.19-1.02,5.83-1.06,9.13,0.38c6.67,2.9,13.87,4.65,20.99,6.12
			C135.59,346.82,140.14,349.35,145.23,349.17z"/>
		<path class="st24" d="M333.38,575.95c2.53,16.99,5.06,33.99,7.59,50.98c-0.64,0.11-1.28,0.22-1.91,0.34
			c-3.52-16.81-5.89-33.83-7.74-50.94C332,576.2,332.69,576.07,333.38,575.95z"/>
		<path class="st25" d="M365.68,237.81c-2.9,7.78-5.74,15.58-8.72,23.33c-2.82,7.34-4.78,11.61-7.69,18.91
			c-0.37,0.93-0.54,2.36-1.84,2.01c-1.54-0.42-0.66-1.69-0.36-2.57c5.11-15.11,10.23-26.77,16.43-41.39
			c0.16-0.38,0.75-0.55,1.14-0.82C364.99,237.46,365.34,237.63,365.68,237.81z"/>
		<path class="st26" d="M343.39,268.55c-2.28-1.88-1.35-3.77-0.8-5.56c2.46-8.06,4.73-16.19,7.6-24.08c0.83-2.29-1.2-4.95,1.54-6.92
			c2.47-1.78,1.31-5.64,3.02-8.08c0.45-0.64,0.38-1.91,1.54-1.59c1.03,0.29,1.05,1.29,0.78,2.16
			C352.54,239.11,347.99,253.74,343.39,268.55z"/>
		<path class="st27" d="M456.58,475.43c-1.28-1.47-3.61-1.41-4.78-3.74c3.14-1.45,5.06,1.59,7.52,1.79c0.24,1.13,1.1,1,1.87,1.05
			c1.14,0.48,2.66,0.23,3.18,1.9c0.76,0.81,1.54,1.55,2.73,1.33c1.74,1.18,3.42-1.23,5.16-0.09c2.03,7.39,9.39,7.02,13.91,10.78
			c1.49,1.24,3.95,1.04,5.19,5.06C478.82,487.81,467.78,481.42,456.58,475.43z"/>
		<path class="st28" d="M142.85,463.19c-2.35,2.68-5.2,3.43-7.64,4.54c-11.57,5.25-23.27,10.18-34.94,15.2
			c-0.85,0.37-1.89,1.38-2.64,0.21c-0.8-1.26,0.33-1.78,1.26-2.23c13.86-6.79,27.96-12.96,42.33-18.41
			C141.44,462.42,141.8,462.73,142.85,463.19z"/>
		<path class="st29" d="M205.82,599.37c-1.83-0.47-1-1.5-0.7-2.75c0.89-3.8,4.75-6.9,2.47-11.47c-0.09-0.18,0.14-0.75,0.34-0.85
			c7.68-3.61,7.52-12.97,12.21-18.76c0.74-0.92,0.66-3.34,2.5-2.27c1.43,0.83-0.03,2.25-0.45,3.2c-1.91,4.29-4.25,8.37-5.92,12.76
			c-0.86,2.27-4.4,4.28-1.4,7.46c0.01,0.01-0.4,0.46-0.6,0.72c-2.87,3.73-6.51,6.86-8.05,11.63
			C206.19,599.17,205.98,599.25,205.82,599.37z"/>
		<path class="st20" d="M453.48,508.41c-0.84-1.84-2.56-2.37-4.12-3.14c-2.08-2.34-6.31-1.32-7.34-5.31
			c-5.84-4.84-11.74-9.62-17.49-14.59c-1.07-0.92-20.71-14.99-19.24-17.05c1.25-1.76,19.48,14.43,20.7,15.3
			c5.06,3.61,9.99,7.43,14.97,11.17c4.72,3.82,9.47,7.62,14.16,11.48c0.83,0.68,2.56,1.31,1.75,2.68
			C455.76,510.85,454.69,508.27,453.48,508.41z"/>
		<path class="st30" d="M285.63,521.58c1.29,3.13-0.03,6.35-0.45,9.41c-1.52,11.14-3.35,22.23-5.07,33.34
			c-0.18,1.15,0.01,2.82-1.62,2.64c-1.43-0.16-0.78-1.6-0.71-2.56c0.97-14,4.32-27.59,6.27-41.43
			C284.14,522.38,284.32,521.59,285.63,521.58z"/>
		<path class="st31" d="M305.08,565.33c-2.37-4.69-1.65-8.28-1.7-11.63c-0.15-10.4,0.03-20.81,0.14-31.21
			c0.01-1.27-1-3.37,0.73-3.62c2.19-0.32,1.82,2.39,1.84,3.54c0.16,7.9,0.38,15.83-0.16,23.69
			C305.52,551.98,306.67,557.94,305.08,565.33z"/>
		<path class="st32" d="M468.52,435.05c-9.95-2.74-19.9-5.48-29.85-8.21c-1.22-0.34-3.67,0.22-1.58-2.49
			c2.1-0.97,3.97-0.58,5.63,1.05c10.27,2.63,20.57,5.14,30.8,7.98c2.04,0.57,3.92,0.14,5.85,0.35c2.64,0.27,2.68,1.55,0.9,3.29
			c-2.49,1.36-4.55-1.1-6.91-0.86C471.63,436.4,469.85,436.81,468.52,435.05z"/>
		<path class="st28" d="M204.9,516.39c-2.58,5.72-6.45,9.08-9.52,13.06c-5.56,7.2-11.35,14.19-17.05,21.26
			c-0.63,0.78-1.31,2.05-2.36,1.38c-1.16-0.74-0.35-1.73,0.3-2.59c8.35-11.15,17.05-21.97,26.2-32.39
			C202.75,516.78,203.38,516.81,204.9,516.39z"/>
		<path class="st33" d="M263.49,209.64c-4.24-14.74-8.4-29.5-9.88-44.88C258.09,179.44,262.2,194.21,263.49,209.64z"/>
		<path class="st21" d="M438.66,355.57c8.57-2.06,17.14-4.07,25.69-6.21c3.45-0.86,6.92-1.33,10.46-1.26
			c1.48,0.03,2.73,0.3,2.59,2.26c-0.15,2.15-1.77,3.05-3.1,1.97c-4.01-3.29-7.78-0.63-11.55,0.14c-5.5,1.12-10.92,2.75-16.37,4.16
			c-1.01,1.5-2.75,1.28-4.1,1.95c-1.95,0.01-10.04,0.74-11.99,0.75C428.85,356.5,437.36,356.12,438.66,355.57z"/>
		<path class="st34" d="M479.15,450.11c2.07,0.85,4.14,1.69,6.21,2.54c11.33,2.94,22.13,7.45,34.09,11.97
			c-3.37,2.23-5.55,0.55-7.41-0.06c-11.06-3.65-22.03-7.6-33.02-11.52c-0.89-0.32-2.68-0.1-2.07-2.08
			C477.26,449.98,478.36,450.28,479.15,450.11z"/>
		<path class="st35" d="M179.26,294.43c-12.74-7.52-24.46-16.47-35.09-26.97C156.89,274.96,168.08,284.72,179.26,294.43z"/>
		<path class="st36" d="M483.74,420.75c14.32,1.93,28.71,3.45,42.69,7.43c-0.1,0.61-0.2,1.23-0.29,1.84
			c-14.26-2.39-28.51-4.78-42.77-7.17C483.5,422.14,483.62,421.44,483.74,420.75z"/>
		<path class="st37" d="M480.81,346.58c13.67-5.24,27.72-8.92,42.2-10.7C509.33,341.12,495.11,343.98,480.81,346.58z"/>
		<path class="st38" d="M145.23,337.37c0.28-1.38,1.27-1.59,2.27-1.28c11.64,3.7,23.34,7.25,34.66,12.06
			c-0.7,1.84-1.77,1.73-2.98,1.32c-5.81-1.96-11.64-3.87-17.44-5.86c-1.41-0.48-2.71-1.35-4.28-0.84
			C153.73,340.08,148.88,340.26,145.23,337.37z"/>
		<path class="st36" d="M326.54,528.64c-0.63,2.63,1.17,4.9,1.01,7.46c0.99,1.77,6.36,2.38,1.29,5.86c-0.54,0.37,0,2.66,0.18,4.03
			c0.74,5.41,1.61,10.79,2.28,16.21c0.2,1.6,0.96,3.4-0.38,4.87c-0.85,0.04-1.35-0.25-1.48-1.09c-1.73-11.47-3.48-22.94-5.18-34.41
			c-0.18-1.2-0.48-2.71,0.02-3.62C325.38,525.93,325.98,527.58,326.54,528.64z"/>
		<path class="st39" d="M305.46,196.59c0.79,14,0.92,27.46-0.55,40.92c-2.44-3.58-1.04-7.59-1.44-11.37
			c-0.29-2.7,1.45-6.17-2.41-7.66c-0.25-0.1-0.49-1.21-0.34-1.33c5.93-4.92,1.43-11.71,2.78-17.42c0.16-0.67,0.17-1.38,0.36-2.03
			C303.92,197.47,304.33,197.35,305.46,196.59z"/>
		<path class="st28" d="M240.65,597.18c2.56-8.64,5.25-17.2,7.59-25.85c0.96-3.56,3.56-6.73,2.28-10.97
			c-0.54-1.79,1.51-1.68,2.39-1.62c1.85,0.13,1.22,1.49,0.85,2.72c-3.44,11.4-6.82,22.82-10.26,34.23
			C243.21,596.67,242.76,597.72,240.65,597.18z"/>
		<path class="st40" d="M339.96,546.5c1.07,0.47,1.21,1.54,1.47,2.54c0.88,3.39,1.79,6.77,2.66,10.15c0.13,0.51,0,1.35,0.27,1.52
			c7.39,4.43-0.49,12.43,3.65,17.63c0.5,0.63,0.51,1.79-0.52,2.17c-1.12,0.41-1.43-0.69-1.61-1.46
			c-2.37-10.22-4.69-20.46-7.03-30.69C338.6,547.31,338.93,546.68,339.96,546.5z"/>
		<path class="st41" d="M198.51,236.25c-4.03-2.46-5.69-6.34-7.95-9.62c-4.78-6.94-9.53-13.92-14.27-20.9
			c-0.56-0.82-1.44-1.86-0.49-2.78c1.11-1.08,1.75,0.26,2.27,1.02c6.87,10.09,13.71,20.2,20.53,30.33
			C198.73,234.52,198.57,234.96,198.51,236.25z"/>
		<path class="st24" d="M459.36,380.08c-5.57,0.36-11.13,0.74-16.7,1.05c-0.91,0.05-2.23,0.32-2.44-1.06
			c-0.31-1.97,1.34-1.51,2.34-1.72c4.31-0.93,8.84,0.32,13.06-1.54c6.13-0.16,12.27-0.32,18.4-0.46c0.89-0.02,2.21-0.59,2.33,0.96
			c0.12,1.57-1.26,1.28-2.17,1.37C469.24,379.17,464.3,379.62,459.36,380.08z"/>
		<path class="st26" d="M351.63,548.15c2.91,0.37,2.65,2.16,3.14,3.33c0.98,2.35,0.95,5.76,4.94,4.49c1.04-0.33,1.94,0.55,2.1,1.75
			c0.18,1.29-0.55,1.99-1.72,1.98c-3.03-0.02-1.95,1.91-1.5,3.51c1.5,5.23,3.05,10.45,4.55,15.68c0.28,0.97,0.72,2.15-0.4,2.79
			c-0.55,0.31-1.22-0.06-1.49-0.92C357.91,570.13,354.34,559.58,351.63,548.15z"/>
		<path class="st42" d="M148.63,321.38c2.2,0.95,4.39,1.92,6.6,2.85c0.79,0.33,1.6,0.73,1.31,1.77c-0.29,1.01-1.31,0.73-2.06,0.87
			c-1.66,0.6-2.84-0.29-3.95-1.41c-1.35-0.65-2.7-1.29-4.05-1.94c-8.52-3.94-17.03-7.88-25.55-11.82c0.21-0.58,0.42-1.17,0.63-1.75
			C130.8,313.08,139.76,317.1,148.63,321.38z"/>
		<path class="st43" d="M323.34,626.81c-0.07,0.8,0.38,2.56-1.57,2.7c-1.23,0.09-3.12,1.17-3.57-0.37c-0.31-1.04-0.7-3.42,0.97-4.18
			c2.39-1.08,1.24-3.04,1.16-4.52c-0.4-7.48-1.02-14.95-1.52-22.43c-0.08-1.25-1.03-3.2,0.95-3.42c1.56-0.17,1.25,1.76,1.34,2.85
			C321.87,607.06,322.58,616.67,323.34,626.81z"/>
		<path class="st24" d="M219.49,264.02c1.87,3.04,3.76,6.07,5.59,9.14c0.55,0.92,1.94,2.02,0.2,3c-1.38,0.78-1.49-0.85-2.01-1.6
			c-4.95-7.04-9.9-14.08-14.84-21.13c-1.09-3.84-4.7-6.15-5.72-10.03c0.41-0.34,0.82-0.69,1.22-1.03
			C209.13,249.58,214.31,256.8,219.49,264.02z"/>
		<path class="st41" d="M431.51,575.62c-3.54,0.11-4.22-2.52-5.36-4.1c-4.11-5.73-8.02-11.62-11.89-17.53
			c-0.89-1.35-1.91-2.95-3.29-2.63c-1.25,0.29-1.8,0.29-2.05-0.91c-0.35-1.72,1.59-1.84,2.12-3.11c0.44-1.03,1.52-0.18,1.98,0.49
			C419.19,556.81,425.78,565.48,431.51,575.62z"/>
		<path class="st28" d="M463.03,305.61c-10.47,8.02-22.27,13.3-33.97,18.77C439.43,316.14,451.13,310.67,463.03,305.61z"/>
		<path class="st27" d="M422.44,245.15c6.84-11.59,15.24-21.72,24.51-31.08C440.3,225.8,431.28,235.43,422.44,245.15z"/>
		<path class="st44" d="M359.12,535.04c-0.94-2.62-7.88-20.23-8.8-22.86c-0.21-0.6-0.72-1.37,0.11-1.81
			c0.79-0.42,1.62-0.28,2.07,0.68c0.74,1.57,7.59,18.1,8.12,19.74c1.12,3.51,2.34,6.84,7.23,7.51c-3.47,2.08-2.65,4.3-2.03,6.93
			c0.88,3.68,4.63,6.67,2.55,11.09C364,549.88,362.49,542.01,359.12,535.04z"/>
		<path class="st45" d="M463.41,560.23c-5.37-2.88-8.92-7.92-13.18-12.1c-3.16-3.1-5.83-8.64-9.21-9.11
			c-4.04-0.56-1.43-1.82-1.24-2.84c0.28-1.52,1.27-1.51,2.14-0.6C449.38,543.48,457.35,550.87,463.41,560.23z"/>
		<path class="st46" d="M81.71,355.19c2.19-2.28,4.26-1.9,5.22-4.16c0.83-1.93,4.69-1.28,4.6,0.7c-0.16,3.52,1.8,2.55,3.26,2.85
			c4.53,0.93,9.09,1.74,13.63,2.64c0.92,0.18,2.16,0.16,1.89,1.74c-0.15,0.86-0.96,0.85-1.58,0.75
			C100.07,358.27,91.41,356.81,81.71,355.19z"/>
		<path class="st41" d="M225.81,554.7c0.72-4.09,3.05-7.56,4.66-11.26c2.92-6.71,18.37-37.17,21.56-43.75
			c0.46-0.95,0.73-2.05,2.09-1.58c0.9,0.31,0.73,1.02,0.42,1.65c-5.03,10.58-22.07,45.14-27.11,55.71
			C226.89,555.22,226.35,554.96,225.81,554.7z"/>
		<path class="st32" d="M106.81,374.91c12.77-0.32,25.48,0.29,38.01,3.24C132.05,378.43,119.36,377.58,106.81,374.91z"/>
		<path class="st47" d="M194.42,320.35c-8.65-3.68-15.86-10.01-23.97-14.69c-1.94-0.2-2.8-2.02-4.14-3.12
			c-0.19-1.23,0.25-1.78,1.44-1.52c6.93,3.37,12.99,8.3,19.6,12.23C189.48,315.87,194.47,315.28,194.42,320.35z"/>
		<path class="st48" d="M289.29,174.28c2.23,12.8,2.02,24.52,3.14,36.82C289.12,207.78,286.7,180.39,289.29,174.28z"/>
		<path class="st28" d="M459.4,323.46c-0.73,2.17-2.81,2.61-4.5,3.37c-7.76,3.49-15.55,6.9-23.38,10.21
			c-0.96,0.41-12.57,6.05-13.25,3.79c-0.54-1.8,1.4-1.5,2.29-2.03c8.57-5.05,28.14-11.61,36.95-16.07
			C458.2,322.38,458.78,322.61,459.4,323.46z"/>
		<path class="st19" d="M266.54,261.9c0.31,5.07,4.02,9.34,2.99,14.76c-4.46-7.62-5.95-16.43-8.98-24.6
			c0.26-3.05-2.6-5.6-1.02-10.11C263.01,248.9,264.42,255.56,266.54,261.9z"/>
		<path class="st33" d="M135.75,481.82c10.45-6.26,20.18-11.68,30.93-16.59C164.37,469.88,140.87,482.56,135.75,481.82z"/>
		<path class="st34" d="M165.45,400.88c2.36,0.49,3.05-0.55,2.84,1.44c-0.31,2.97-0.97-0.03-3.18,1.79
			c-9.68,0.59-17.35,1.17-27.03,1.76c-0.05-0.56-0.09-1.11-0.14-1.67C147.62,401.83,155.69,402.57,165.45,400.88z"/>
		<path class="st23" d="M444.26,416.05c-0.87-0.11-1.74-0.48-1.69-1.47c0.06-1.26,1.09-0.9,1.87-0.83c0.97,0.09,1.94,0.16,2.91,0.23
			c9.26,1.95,18.76,2.62,28.47,5.49c-2.68,2.89-5.14,1.03-7.34,0.93c-4.92-0.24-9.66-3.15-14.81-0.72
			c-1.66,0.78-2.22-1.69-3.32-2.63C448.5,415.53,446.11,417.69,444.26,416.05z"/>
		<path class="st33" d="M378.11,579.46c1.53,0.31,1.72,1.45,2.09,2.4c3.5,8.97,6.99,17.94,10.46,26.91c0.41,1.06,1.47,2.44-0.2,3.11
			c-1.34,0.54-1.35-1.16-1.79-1.98c-4.75-8.89-7.02-18.88-11.11-28.07C377.16,580.9,377.04,579.83,378.11,579.46z"/>
		<path class="st49" d="M449.36,390.36c5.09-0.24,10.22,0.43,15.27-0.78c3.13,1.62,6.25,0.82,9.37-0.02
			c4.4,1.22,8.97-0.39,13.36,0.89c0.54,2.27-0.89,2.16-2.28,2.16c-11.57,0-23.14,0.02-34.71,0.02
			C448.59,392.62,447.65,392.15,449.36,390.36z"/>
		<path class="st50" d="M448.26,262.48c-0.52,0.57-0.93,1.12-1.42,1.57c-7.28,6.64-14.56,13.28-21.86,19.9
			c-0.71,0.65-1.52,1.71-2.44,0.42c-0.66-0.94,0.22-1.54,0.8-2.14c7-7.26,14.73-13.64,22.23-20.28c0.45-0.4,1.15-0.64,1.74-0.64
			C447.61,261.31,447.9,262.01,448.26,262.48z"/>
		<path class="st23" d="M289,593.25c2.35,2.99,1.44,4.95,1.48,6.74c0.07,2.8-1.92,6.58,3.34,6.29c0.73-0.04,1.58,0.79,1.24,1.83
			c-0.19,0.57-0.89,1.4-1.28,1.36c-5.11-0.55-4.33,3.31-4.5,6.56c-0.14,2.71-0.05,5.51-1.94,7.9
			C286.42,614.03,287.46,604.29,289,593.25z"/>
		<path class="st51" d="M219.2,170.36c3.9,7.15,6.62,14.6,9.45,21.98c1.12,2.93,2.06,5.95,3.08,8.93c0.28,0.83,0.68,1.71-0.46,2.16
			c-0.82,0.32-1.3-0.37-1.52-0.97c-3.7-10.33-8.55-20.16-11.44-30.83C218.25,171.44,218.65,171.11,219.2,170.36z"/>
		<path class="st52" d="M432.37,433.04c7.02,3.15,21.24,8.68,28.59,10.79c2.35,1.96,5.43,1.92,8.89,3.56
			c-2.88,1.88-5.04,1.93-7.34,0.45c-6.95-2.58-13.89-5.2-20.86-7.71c-1.85-0.67-10.4-4.4-10.15-6.88
			C431.79,433.23,432.09,433.17,432.37,433.04z"/>
		<path class="st41" d="M404.94,183.18c-1.09,6.39-4.67,10.94-6.65,16.15c-1.91,5.01-4.7,9.65-7.14,14.43
			c-0.37,0.73-0.77,1.75-1.81,1.22c-1.02-0.51-0.62-1.4-0.24-2.22c4.53-9.56,8.51-19.42,13.85-28.54
			C403.15,183.87,403.76,183.78,404.94,183.18z"/>
		<path class="st53" d="M213.43,547.89c1.68-3.18,3-5.88,4.49-8.47c3.7-6.48,7.47-12.91,11.24-19.35c0.49-0.84,0.88-2.11,2.15-1.7
			c0.94,0.3,1.01,0.96,0.45,2c-5.03,9.33-10.42,18.42-16.11,27.29C215.48,547.92,214.77,547.77,213.43,547.89z"/>
		<path class="st45" d="M195.28,551.67c-5.1,10.58-12.17,19.67-19.45,28.6C180.63,569.48,187.55,560.27,195.28,551.67z"/>
		<path class="st48" d="M145.4,363.11c8.28,1.37,16.56,2.74,24.84,4.12c0.88,0.8,2.94,1.07,1.21,3.04
			c-10.72-1.78-21.44-3.56-32.17-5.35c0.07-0.59,0.13-1.18,0.2-1.77C141.37,362.07,143.45,363.39,145.4,363.11z"/>
		<path class="st51" d="M148.85,430.24c7.29-1.92,14.68-3.87,22.08-5.81c2.41-0.63,0.84-0.21,3.25-0.84
			c0.97-0.25,1.67,0.09,1.87,1.11c0.18,0.94-0.62,1.03-1.23,1.23c-9.3,3.14-14.9,3.96-24.42,6.16
			C149.88,432.22,149.08,432.07,148.85,430.24z"/>
		<path class="st54" d="M141.9,498.23c-3.88,4.42-9.12,6.41-13.48,9.67c-4.06,3.04-8.53,5.46-12.83,8.14
			c-0.67,0.42-1.36,1.29-2.14,0.32c-0.77-0.95-0.05-1.73,0.62-2.17c8.72-5.78,17.14-12.12,26.55-16.67
			C140.79,497.44,141.15,497.8,141.9,498.23z"/>
		<path class="st52" d="M505.81,357.45c-10.53,3.79-21.44,5.34-32.53,5.77C483.74,359.03,494.84,358.69,505.81,357.45z"/>
		<path class="st26" d="M439.91,286.7c-1.23,4.04-4.75,5.43-7.5,7.66c-5.39,4.37-10.91,8.56-16.39,12.81
			c-0.75,0.58-8.63,6.62-9.51,5.44c-0.62-0.83,0.06-1.56,0.75-2.15C415.34,303.52,430.72,292.06,439.91,286.7z"/>
		<path class="st55" d="M281.87,239.46c-2.79-11.31-5.29-22.68-4.95-34.53C279.77,216.23,282.02,227.64,281.87,239.46z"/>
		<path class="st56" d="M124.13,422.01c10.23-4.21,21.13-4.6,31.91-5.64C145.73,420.13,135.01,421.52,124.13,422.01z"/>
		<path class="st44" d="M236.37,565.93c-0.5-4.44,2.27-7.65,3.51-11.31c2.17-6.42,14.8-39.67,17.33-45.95
			c0.39-0.96,0.71-2.61,2.36-1.86c0.75,0.35,0.58,1.18,0.31,1.84c-4.2,10.06-17.15,47.69-22.4,57.27
			C237.44,566,237.16,565.93,236.37,565.93z"/>
		<path class="st21" d="M420.54,538.15c-1.27-3.13-4.59-4.88-5.53-9.14c3.35,0.68,4.28,3.7,6.3,5.1c1.26,0.06,2.03,0.91,2.7,1.91
			c0.63,0.96,0.44,2.34,1.4,3.13c4.08,5.49,8.15,10.98,12.23,16.47c-0.36,0.33-0.73,0.65-1.09,0.98
			C430.39,551.3,425.98,544.19,420.54,538.15z"/>
		<path class="st36" d="M315.31,238.58c-0.22-12.25,1.03-23.76,2.52-35.92C320.3,207.03,318.33,234.1,315.31,238.58z"/>
		<path class="st28" d="M101.72,408.72c10.77-3.05,21.7-3.83,32.76-2.9C123.71,408.61,112.68,408.27,101.72,408.72z"/>
		<path class="st44" d="M474.86,405.76c11.1-0.66,22.07,0.14,32.94,2.58C496.68,409.6,485.74,407.82,474.86,405.76z"/>
		<path class="st57" d="M476.58,546.06c-0.17,0.39-0.23,0.82-0.46,0.99c-1.09,0.83-1.9-0.1-2.59-0.71
			c-4.61-4.06-9.17-8.19-13.73-12.31c-1.52-1.37-3.06-2.73-4.5-4.2c-0.62-0.63-1.95-1.17-1.13-2.44c0.87-1.35,1.81-0.28,2.49,0.33
			c6.37,5.68,12.7,11.41,19.03,17.14C476.05,545.2,476.3,545.68,476.58,546.06z"/>
		<path class="st23" d="M388.53,287.06c4.86-8.6,10.75-16.22,18.13-22.49C401.99,273.31,395.56,280.47,388.53,287.06z"/>
		<path class="st58" d="M169.78,536.53c-0.5,0.56-0.94,1.08-1.4,1.58c-6.69,7.1-13.38,14.2-20.08,21.29
			c-0.66,0.7-1.37,1.88-2.41,0.73c-0.76-0.84,0.03-1.61,0.6-2.22c6.79-7.25,13.58-14.51,20.42-21.71c0.53-0.56,1.42-0.77,2.18-0.99
			C169.19,535.17,169.52,536.02,169.78,536.53z"/>
		<path class="st34" d="M475.96,236.84c-2.21,3.81-5.85,5.99-8.75,8.9c-3.35,3.37-7.08,6.32-10.63,9.46
			c-0.63,0.55-1.24,1.33-2.11,0.75c-0.64-0.42-0.68-1.26-0.13-1.8c6.55-6.34,12.82-13.06,20.48-17.96
			C474.96,236.1,475.36,236.48,475.96,236.84z"/>
		<path class="st31" d="M378.82,260.8c5.26-9.92,9.66-18.51,15.99-25.77c-0.84,5.51-4.39,9.51-6.61,14.22
			c-1.47,3.12-4.5,5.3-4.07,9.65C384.29,260.5,381.4,259.78,378.82,260.8z"/>
		<path class="st48" d="M207.64,268.27c3.82,4.99,7.67,9.95,11.43,14.98c0.81,1.09,3.18,2.29,1.73,3.6
			c-1.84,1.67-2.6-1.26-3.54-2.35c-4.34-5.01-8.52-10.18-12.76-15.29c-0.25-0.44-0.42-0.98-0.77-1.31c-1.06-0.99-2.2-2.3-0.76-3.43
			c1.2-0.94,1.79,0.84,2.5,1.74C206.07,267,206.91,267.59,207.64,268.27z"/>
		<path class="st59" d="M420,222.22c0.35-3.97,3.37-6.52,5.23-9.59c2.78-4.58,6.12-8.78,9.28-13.09c0.45-0.62,0.91-1.66,1.94-1.25
			c0.69,0.28,1,0.98,0.52,1.68c-5.26,7.71-10.54,15.41-15.82,23.1C420.77,222.79,420.38,222.5,420,222.22z"/>
		<path class="st60" d="M80.43,391.66c10.9-1.82,21.82-1.93,32.74-0.18C102.28,393.33,91.36,392.31,80.43,391.66z"/>
		<path class="st61" d="M450.63,405.24c-1.94-0.29-1.89-0.46-3.8-0.9c-1.5-0.35-3-1.6-2.95-3.05c0.09-2.44,2.32-0.82,3.49-1.38
			c5.79,2.91,10.11,2.75,16.26,3.56c1.14,0.15,2.7,0.05,2.61,1.65c-0.11,1.9-1.81,1.07-2.79,1.02
			C459.17,405.92,454.9,405.55,450.63,405.24z"/>
		<path class="st62" d="M243.31,190.73c4.61,8.81,6.89,18.35,8.69,28.06C247.46,210,244.72,200.56,243.31,190.73z"/>
		<path class="st50" d="M486.8,252.47c-0.65,0.5-1.33,1.02-2,1.53c-6.17,4.71-12.33,9.43-18.51,14.1c-0.71,0.54-1.58,1.79-2.49,0.52
			c-0.85-1.18,0.32-1.92,1.06-2.49c6.26-4.87,12.55-9.69,18.84-14.53c0.66-0.51,1.28-1.26,2.16-0.86
			C486.19,250.91,486.32,251.56,486.8,252.47z"/>
		<path class="st63" d="M143.39,304.47c-4.22-0.58-7.65-3.01-11.26-4.8c-4.17-2.07-8.16-4.55-12.23-6.84
			c-0.74-0.41-1.63-0.77-1.33-1.87c0.34-1.29,1.32-0.8,2-0.46c7.75,3.84,15.44,7.81,22.71,12.62
			C143.43,303.21,143.34,303.75,143.39,304.47z"/>
		<path class="st28" d="M144.36,391.45c-4.08,0.49-7.58,4.61-12.31,1.56c-1.64-1.06-5.25-1.92-7.02,1.5
			c-0.55,1.07-1.3,1.65-2.37,0.91c-0.83-0.57-1.72-1.29-1.4-2.54c0.3-1.15,0.5-2.52,2.07-2.54
			C130.34,390.26,137.38,389.45,144.36,391.45z"/>
		<path class="st64" d="M328.23,234.09c-0.19-10,0.98-19.81,4.32-29.23C332.99,214.9,330.54,224.47,328.23,234.09z"/>
		<path class="st36" d="M442.66,303.06c-0.47-0.22-1.08-0.29-1.24-0.61c-0.48-0.97,0.1-1.61,0.87-2.11
			c6.94-4.47,13.88-8.94,20.82-13.41c0.58-0.37,1.19-0.71,1.79-0.1c0.61,0.64,0.38,1.44-0.17,1.8
			C457.42,293.45,450.07,298.22,442.66,303.06z"/>
		<path class="st65" d="M496.36,515.21c-0.15,0.52-0.16,0.95-0.36,1.14c-0.99,0.93-1.84,0.15-2.65-0.38
			c-5.05-3.31-10.24-6.41-15.06-10.07c-2.02-1.54-6.71-1.56-5.38-5.17c0.6-1.62,4.26,1.78,6.38,3.02c5.2,3.03,10.13,6.61,15.15,9.98
			C495.12,514.18,495.74,514.73,496.36,515.21z"/>
		<path class="st66" d="M252.37,623.64c0.27-10.05,2.76-19.56,6.33-28.79C258.47,604.91,255.48,614.29,252.37,623.64z"/>
		<path class="st67" d="M113.4,266.75c8.36,3.4,15.67,8.67,23.05,13.8c0.54,0.38,1.02,0.99,0.52,1.73
			c-0.45,0.67-1.08,0.67-1.73,0.26C127.69,277.73,119.96,273.19,113.4,266.75z"/>
		<path class="st23" d="M476.73,468.95c-6.5-3.08-13-6.15-19.5-9.23c4.37-1.93,7.35,1.87,11.13,1.93c4.33,2.11,8.67,4.22,12.99,6.35
			c0.84,0.41,2.23,0.6,1.9,1.93c-0.52,2.05-1.82,0.63-2.77,0.35C479.21,469.91,477.98,469.4,476.73,468.95z"/>
		<path class="st62" d="M180.52,446.03c-2.64,4.12-7.15,4.61-10.84,6.62c-3.97,2.16-8.29,3.57-12.42,5.4
			c-0.88,0.39-1.64,0.58-2.16-0.3c-0.62-1.04,0.23-1.67,0.94-1.99C164.05,452.14,171.92,448.16,180.52,446.03z"/>
		<path class="st19" d="M143.57,432.42c-8.52,4.34-17.6,6.19-26.92,6.96C125.25,435.38,134.28,433.32,143.57,432.42z"/>
		<path class="st28" d="M422.05,594.9c-6.34-7.45-11.06-15.95-14.7-25.14C413.98,577.01,417.93,586.01,422.05,594.9z"/>
		<path class="st68" d="M91.31,317.22c4.3-0.16,8.15,2.15,12.22,3.15c4.33,1.06,8.48,2.95,12.69,4.54c0.72,0.27,1.68,0.62,1.37,1.8
			c-0.31,1.22-1.16,0.92-1.97,0.65c-8.23-2.8-16.46-5.6-24.69-8.39C91.06,318.39,91.19,317.81,91.31,317.22z"/>
		<path class="st35" d="M251.99,254.28c-1.12,0.54-2.01,0.29-2.63-0.88c-3.24-8.64-6.48-17.28-9.72-25.93
			c0.51-0.22,1.03-0.44,1.54-0.67C245.91,235.43,249.32,244.68,251.99,254.28z"/>
		<path class="st45" d="M512.13,300.22c-8.07,5.29-16.81,8.68-25.8,11.43C494.18,305.87,502.97,302.51,512.13,300.22z"/>
		<path class="st69" d="M115.44,423.32c-8.88,3.06-17.94,4.96-27.31,4.78C96.88,424.36,106.19,423.98,115.44,423.32z"/>
		<path class="st31" d="M397.58,555.93c-1.14-3.29-3.73-5.92-4.23-10.53c4.98,3.08,5.46,8.77,8.83,12.01
			c0.29,1.9,2.27,3.51,0.45,5.78c-1.48,1.84,2.05,1.14,1.42,3.14c-2.77-0.82-5.99-0.31-7.8-3.66c0.36-0.41,0.71-0.83,1.07-1.24
			C399.13,559.69,398.1,557.79,397.58,555.93z"/>
		<path class="st24" d="M269.59,230.28c1.05,4.81,2.1,9.63,3.15,14.44c0.19,0.86,0.47,1.86-0.5,2.3c-1.03,0.46-1.5-0.43-1.7-1.32
			c-1.9-8.41-3.78-16.82-5.66-25.23c-0.22-0.97,0.03-1.89,1.05-1.93c0.41-0.02,1.1,0.78,1.23,1.32c0.56,2.22,0.96,4.48,1.41,6.73
			C268.75,227.88,270.28,228.73,269.59,230.28z"/>
		<path class="st60" d="M304.68,573.16c1.24,9.77,2.19,19.55-0.2,29.28C303.12,592.68,303.46,582.92,304.68,573.16z"/>
		<path class="st70" d="M260.12,587.23c0.54-9,2.45-16.21,4.49-23.33c0.63-2.21-0.27-6.38,2.78-6.16c1.33,0.1-0.06,4.44-0.62,6.85
			c-1.27,5.44-2.33,10.94-3.62,16.38C262.73,582.7,262.8,584.76,260.12,587.23z"/>
		<path class="st24" d="M384.51,274.1c-0.3,5.25-4.24,8.29-6.42,12.36c-1.61,3.02-3.95,5.6-5.94,8.39
			c-0.55,0.77-1.28,1.25-2.12,0.87c-0.74-0.33-0.63-1.12-0.24-1.77C374.06,286.82,379.09,280.33,384.51,274.1z"/>
		<path class="st71" d="M272.93,605.19c-0.08-9.92,1.14-19.62,4.18-29.04C277.28,586.09,275.61,595.72,272.93,605.19z"/>
		<path class="st55" d="M176.71,506.16c6.14-5.74,22.27-21.48,28.41-27.23c0.58-0.54,1.11-0.55,1.72,0.02
			c0.88,0.82,0.56,1.66-0.1,2.22c-6.35,5.38-22.07,21.62-28.82,26.46C177.52,507.15,177.11,506.65,176.71,506.16z"/>
		<path class="st31" d="M268.52,548.18c1.5-8.67,4.3-23.54,8.21-31.52c0.53,0.15,1.05,0.29,1.58,0.44c-2,8.51-6,23.02-8,31.53
			C269.71,548.48,269.11,548.33,268.52,548.18z"/>
		<path class="st72" d="M444.26,416.05c2.07,0.06,4.27-0.74,6.1,1c-2.06,0.23-5.4-1.42-3.51,3.69c1.14,3.1-2.65,3.14-4.12,4.66
			c-2.03,0.57-3.76-0.68-5.63-1.05c0.27-4.07,1.17-7.24,6.18-5.83C444.05,418.75,444.59,417.21,444.26,416.05z"/>
		<path class="st73" d="M337.15,170.75c1.74,3.54,0.84,5.82,0.46,8.13c-0.82,5.01-1.52,10.04-2.29,15.06
			c-0.13,0.85-0.22,1.86-1.25,1.96c-0.73,0.07-1.26-0.49-1.16-1.32C333.82,186.95,334.3,179.22,337.15,170.75z"/>
		<path class="st74" d="M485.18,375.94c7.43-1.98,15.03-2.58,22.99-2.35C505.6,376.55,491.02,378.22,485.18,375.94z"/>
		<path class="st31" d="M212.95,200.14c-5.06-6.13-8-13.49-10.16-21.28C206.91,185.52,211.99,191.61,212.95,200.14z"/>
		<path class="st75" d="M291.97,561.29c2.07,4.4,0.3,8.83,0.39,13.23c0.05,2.62-0.44,5.26-0.77,7.88c-0.13,1.06,0.41,2.94-1.36,2.68
			c-1.56-0.23-0.84-1.95-0.82-3.05C289.49,575.04,289.8,568.07,291.97,561.29z"/>
		<path class="st76" d="M157.84,441.68c-1.42,2.97-3.51,3.24-5.23,3.84c-4.83,1.71-9.73,3.21-14.6,4.78
			c-0.79,0.25-1.7,0.59-2.26-0.27c-0.38-0.59-0.18-1.46,0.57-1.72C143.18,445.95,149.79,442.57,157.84,441.68z"/>
		<path class="st58" d="M151.62,390.83c8.83-0.82,11.83-1.32,20.67,0.49c-3.74,2.01-1.91,1.36-5.84,1.45
			c-3.92-0.08-7.85-0.16-11.77-0.22C153.36,392.54,151.97,392.74,151.62,390.83z"/>
		<path class="st59" d="M167.96,480.4c-5.44,5.85-12.15,9.64-19.25,12.8C154.13,487.31,160.69,483.32,167.96,480.4z"/>
		<path class="st35" d="M240.67,254.45c0.05,0.16,0.12,0.32,0.13,0.49c0.14,1.51,2.26,3.39,0.28,4.36c-1.53,0.75-1.73-1.91-2.58-3
			c-0.3-0.38-0.6-0.76-0.89-1.15c-2.16-5.78-5.94-10.88-6.52-17.37C235.66,242.5,237.17,249.12,240.67,254.45z"/>
		<path class="st59" d="M171.03,513.2c-5.09,6.17-10.67,11.41-17.25,15.36C158.5,522.04,163.88,516.36,171.03,513.2z"/>
		<path class="st19" d="M492.69,473.08c6.44,2.18,12.6,5.11,18.7,8.19c0.6,0.3,1.06,0.96,0.66,1.71c-0.35,0.67-0.97,0.77-1.68,0.45
			c-6.07-2.68-12.15-5.33-18.21-8.03c-0.59-0.26-1.15-0.75-0.97-1.6C491.38,472.9,491.99,472.86,492.69,473.08z"/>
		<path class="st18" d="M343.79,218.54c0,7.76-2.28,14.91-4.05,22.18c-0.15,0.61-0.45,1.48-1.35,1.03c-0.37-0.19-0.89-0.8-0.82-1.09
			C339.2,233.14,340.1,225.39,343.79,218.54z"/>
		<path class="st77" d="M483.83,330.54c-0.63,0.39-1.29,0.97-2.05,1.23c-5.85,2-11.72,3.95-17.59,5.9
			c-0.75,0.25-1.64,0.71-2.01-0.57c-0.26-0.9,0.41-1.31,0.98-1.58c6.08-2.92,12.58-4.48,18.92-6.53
			C483.03,328.67,483.64,329.26,483.83,330.54z"/>
		<path class="st24" d="M199.08,576.47c-1.34-0.21-1.71-0.99-1.03-2.19c3.42-6.03,6.88-12.02,10.31-18.05
			c0.41-0.73,1.06-1.05,1.63-0.74c0.55,0.3,0.87,1.11,0.45,1.84c-3.54,6.15-7.09,12.29-10.65,18.42
			C199.62,576.03,199.32,576.23,199.08,576.47z"/>
		<path class="st78" d="M491.61,326.89c6.13-4.21,13.06-5.85,19.78-8.09c0.51-0.17,1.41,0.06,1.75,0.46
			c0.45,0.55,0.23,1.38-0.54,1.67C505.76,323.53,498.94,326.24,491.61,326.89z"/>
		<path class="st79" d="M322.29,153.56c1.11,8.12,0.01,16.08-1.61,24.01C319.12,169.41,320.05,161.43,322.29,153.56z"/>
		<path class="st33" d="M491.8,269.65c-5.3,5.57-11.85,9.09-18.15,12.99c-0.26,0.16-1-0.08-1.19-0.37
			c-0.21-0.33-0.21-1.21,0.01-1.36C478.62,276.62,484.48,271.72,491.8,269.65z"/>
		<path class="st80" d="M523.96,391.49c-9.35,1.71-18.71,0.99-28.09,0.25C505.19,389.44,514.57,390.12,523.96,391.49z"/>
		<path class="st78" d="M192.43,253.45c-4.76-4.69-8.59-10.25-12.64-15.6c-0.56-0.74-1.78-1.56-0.69-2.63
			c1.11-1.09,1.75,0.22,2.35,0.97c4.28,5.37,8.54,10.77,12.81,16.16C193.85,253.11,193.22,253.43,192.43,253.45z"/>
		<path class="st81" d="M179.7,607.1c4.16-0.75,6.78-5.77,10.31-1.22c0.75,0.96,3.81,3,0.64,4.92
			C186.43,613.35,183.42,610.8,179.7,607.1z"/>
		<path class="st82" d="M373.63,612.92c-3.8-1.2-3.87-4.47-4.82-7.04c-1.55-4.23-2.58-8.68-3.85-13.03
			c-0.25-0.85-0.62-1.72,0.21-2.38c0.62-0.49,1.34-0.3,1.59,0.48C369.08,598.26,371.34,605.59,373.63,612.92z"/>
		<path class="st19" d="M411.15,206.85c-2.08,7.45-6.53,13.5-10.26,19.97c-0.38,0.65-1.02,0.89-1.67,0.34
			c-0.67-0.57-0.44-1.28-0.1-1.89C402.72,218.88,405.83,212.11,411.15,206.85z"/>
		<path class="st23" d="M86.32,446.53c5.12-2.61,10.7-3.8,16.27-4.68c1.81-0.28,4.74-3.05,5.49-0.14c0.53,2.05-3.17,2.23-5.1,2.72
			c-5.4,1.39-10.86,2.51-16.29,3.74C86.57,447.62,86.45,447.08,86.32,446.53z"/>
		<path class="st83" d="M366.06,190.71c-0.61,8.26-3.52,15.72-6.88,23.03C359.56,205.4,362.12,197.82,366.06,190.71z"/>
		<path class="st84" d="M275.49,195.82c-2.67-7.66-4.24-15.5-3.48-23.71C275.09,179.67,275.43,187.73,275.49,195.82z"/>
		<path class="st19" d="M211.78,230.24c3.8,2.34,4.96,6.7,7.26,10.15c1.81,2.71,3.28,5.68,4.88,8.55c0.34,0.62,0.57,1.38-0.13,1.85
			c-0.31,0.21-1.1,0.21-1.26-0.02C218.21,244.37,213.86,237.98,211.78,230.24z"/>
		<path class="st31" d="M434.69,308.15c-5.82,3.83-18.62,11.68-24.46,15.46c-0.78,0.51-1.62,0.25-2.03-0.75
			c-0.34-0.82,0.14-1.33,0.72-1.7c5.89-3.66,18.79-11.31,24.68-14.96C433.96,306.85,434.33,307.5,434.69,308.15z"/>
		<path class="st44" d="M415.34,228.48c0.36,4.47-2.22,6.27-3.69,8.58c-2.42,3.79-5.04,7.44-7.58,11.14c-0.49,0.71-1.03,1.5-2,0.96
			c-0.71-0.4-0.72-1.11-0.29-1.77C405.82,241.1,409.66,234.63,415.34,228.48z"/>
		<path class="st41" d="M367.03,228.87c2.46-5.92,2.88-12.54,7.45-17.53c2.01,2.11-2.66,5.99,2.58,6.14
			c1.17,0.03,0.52,2.2-0.33,2.24c-5.19,0.25-5.56,4.97-7.27,8.45C369.1,228.9,368.47,228.99,367.03,228.87z"/>
		<path class="st85" d="M158.09,210.23c2.81-0.83,3.54,1.22,4.49,2.36c3.52,4.21,6.84,8.61,10.26,12.92
			c0.65,0.81,1.6,1.71,0.67,2.68c-1.11,1.16-1.64-0.29-2.25-0.99C166.62,221.91,161.94,216.63,158.09,210.23z"/>
		<path class="st76" d="M221.51,215.17c2.13,4.78,5.06,9.2,5.71,14.66c-5.14-6.22-8.26-13.53-11.24-21.78
			c3.31,0.71,3.67,3.05,4.45,4.99C221.11,213.57,221.57,214.22,221.51,215.17z"/>
		<path class="st86" d="M163.16,313.07c0.81,1.42,3.13,1.19,3.31,3.73c-2.71,1.1-4.5-2.39-7.01-1.71c-2.83-0.22-4.52-3.15-7.44-3.46
			c-1.22-0.13-1.89-2.05-1.09-3.42c0.88-1.5,1.98-0.28,2.96,0.21C156.98,309.98,160.07,311.52,163.16,313.07z"/>
		<path class="st61" d="M362.46,273.51c-0.37,0.94-0.64,1.76-1,2.54c-2.31,4.85-2.63,7.7-4.98,12.53c-0.51,1.05,0.23,1.36-1.18,0.75
			c-1.87-0.82-1.45-0.7-1.04-1.59c2.48-5.37,3.03-8.69,5.58-14.02c0.37-0.78,0.85-1.63,1.85-1.3
			C362.02,272.53,362.2,273.14,362.46,273.51z"/>
		<path class="st28" d="M463.89,514.15c6.66,3.2,12.08,8.18,17.81,12.68c0.5,0.39,0.86,1.17,0.23,1.77
			c-0.29,0.28-1.03,0.46-1.28,0.26C474.76,524.34,468.23,520.67,463.89,514.15z"/>
		<path class="st87" d="M333.27,525.49c0.2-2.55-2.39-6.74,0.11-7.22c2.81-0.55,1.63,4.4,2.88,6.64c0.49,0.87,0.71,1.92,1.05,2.88
			c0.3,2.22,0.64,4.43,0.89,6.65c0.12,1.11,0.94,2.71-0.45,3.2c-1.93,0.68-1.35-1.89-2.32-2.61c0.05-1.25-0.14-2.43-0.86-3.46
			C332.55,529.92,333.56,527.55,333.27,525.49z"/>
		<path class="st24" d="M374.37,246.79c-1.35,6.94-4.9,11.63-7.17,16.91c-0.24,0.56-1.21,0.87-1.65,0.18
			c-0.29-0.45-0.25-1.34-0.05-1.91c0.89-2.48,2.88-4.84,0.47-7.58c-0.14-0.16,0.27-1.25,0.44-1.26
			C369.98,253.04,371,249.05,374.37,246.79z"/>
		<path class="st43" d="M182.02,432.79c-0.73,2.44-2.25,3.44-4.03,4.03c-4.43,1.46-5.87,1.87-10.31,3.29
			c-0.79,0.25-1.75,0.61-2.24-0.31c-0.54-1.02,0.25-1.59,1.09-1.87C172.62,435.87,175.43,433.86,182.02,432.79z"/>
		<path class="st45" d="M129.4,486.42c-5.88,5.27-12.81,8.38-20.06,10.85C115.19,491.95,121.94,488.45,129.4,486.42z"/>
		<path class="st32" d="M389.81,301.81c-1.43-0.52-1.28-1.31-0.4-2.25c4.41-4.71,8.8-9.43,13.23-14.12
			c0.42-0.44,1.02-0.98,1.72-0.46c0.64,0.48,0.76,1.22,0.24,1.79c-4.62,4.96-9.27,9.89-13.93,14.81
			C390.48,301.78,390.08,301.74,389.81,301.81z"/>
		<path class="st88" d="M291.49,546.56c0.46-3.67,0.92-7.34,1.36-11.02c0.11-0.91,0.19-1.83,1.35-1.72
			c0.79,0.07,1.14,0.69,1.09,1.46c-0.35,5.28-0.72,10.56-1.11,15.84c-0.06,0.8-0.68,1.39-1.3,1.19c-0.5-0.16-1.08-0.94-1.15-1.51
			c-0.17-1.38-0.05-2.8-0.05-4.21C291.63,546.58,291.56,546.57,291.49,546.56z"/>
		<path class="st89" d="M287.36,265.1c-0.41,0.65-0.82,1.29-1.23,1.94c-3.26,0.82-2.26-1.27-1.81-2.99
			c-0.57-2.96-1.14-5.92-1.71-8.88c0.6-2.16-0.82-4.47,0.83-7.37C286.86,253.4,285.56,259.71,287.36,265.1z"/>
		<path class="st90" d="M190.33,285.34c1.28,1.35,2.54,2.71,3.84,4.04c0.62,0.64,1.21,1.27,0.52,2.2c-0.68,0.92-1.5,0.18-2.25,0.12
			c-1.5-0.09-2.48-0.82-2.75-2.46c0,0,0.02-0.04,0.02-0.04c-2.55-2.44-5.1-4.88-7.63-7.33c-0.78-0.75-1.41-1.71-0.39-2.63
			c0.79-0.71,1.48,0.18,2.1,0.69C185.97,281.72,188.15,283.53,190.33,285.34z"/>
		<path class="st91" d="M315.58,539.33c2.76,5.52,1.64,11.55,2.33,17.33c0.04,0.35-0.45,0.95-0.82,1.13
			c-0.83,0.41-1.37-0.52-1.41-0.99C315.22,551.02,314.04,545.23,315.58,539.33z"/>
		<path class="st35" d="M445.69,281.44c5.13-4.95,9.77-8.6,15.52-11.89C459.69,274.36,450.83,281.16,445.69,281.44z"/>
		<path class="st67" d="M434.45,511.42c-0.97-3.69,1.09-2.3,2.63-1.77c3.3,3.12,6.59,6.25,9.89,9.37c0.74,0.7,1.67,1.4,0.61,2.51
			c-0.84,0.87-1.57-0.08-2.11-0.53C441.76,517.84,438.11,514.62,434.45,511.42z"/>
		<path class="st32" d="M190.69,513.75c-1.85-0.89-0.77-2.01-0.05-2.83c3.64-4.12,14.35-15.17,18.04-19.25
			c0.61-0.67,1.32-1.17,2.16-0.51c0.78,0.62,0.91,1.46,0.17,2.24c-4.12,4.36-15.25,15.71-19.39,20.03
			C191.42,513.63,191.03,513.64,190.69,513.75z"/>
		<path class="st92" d="M317.58,566.9c2.84,5.43,1.54,11.47,2.46,17.19c0.05,0.34-0.39,0.96-0.74,1.15
			c-0.78,0.43-1.38-0.28-1.46-0.89C317.07,578.6,316.19,572.83,317.58,566.9z"/>
		<path class="st79" d="M518,445.91c-5.67,0.71-10.89-1.26-16.15-2.95c-0.51-0.17-1.29-0.61-0.92-1.56c0.3-0.76,0.92-1.09,1.6-0.89
			C507.73,442.05,513.16,442.8,518,445.91z"/>
		<path class="st93" d="M197.42,255.54c1.94-2.04,2.84-1.73,4.13,1.07c1.7,3.71-3.53,5.38-1.67,8.74c-0.95,0.17-1.92,0.56-2.83,0.43
			c-0.86-0.13-1.07-0.88-0.87-1.99c0.37-2.05,1.18-4.3-0.75-6.08C195.95,256.84,196.61,256.11,197.42,255.54z"/>
		<path class="st94" d="M122.58,251.52c2.78-1.37,3.94,0.93,5.48,1.95c1.54,1.01,3.03,2.18,4.32,3.53c1.6,1.67,5.84,2.29,4.36,4.94
			c-1.09,1.95-3.83-1.58-5.56-2.76C128.14,257.11,124.81,255.09,122.58,251.52z"/>
		<path class="st95" d="M486.15,293.16c-4.38,4.45-9.71,7.06-15.58,8.55C474.8,296.96,480.24,294.65,486.15,293.16z"/>
		<path class="st66" d="M373.97,164.51c0.34,6.14-2.28,11.39-3.98,16.91c-0.23,0.76-0.99,0.99-1.62,0.61
			c-0.31-0.19-0.59-0.93-0.49-1.3C369.42,175.13,370.72,169.45,373.97,164.51z"/>
		<path class="st33" d="M433.29,347.33c5.09-3.26,14.55-7.59,20.66-7.32C449,343.59,439.17,346.75,433.29,347.33z"/>
		<path class="st96" d="M201.92,472.78c-0.38,0.44-0.75,1.02-1.26,1.41c-3.72,2.86-21.45,15.69-25.21,18.49
			c-0.62,0.46-1.5,1.13-1.97-0.09c-0.17-0.45,0.16-1.44,0.56-1.76c3.81-3.02,21.66-15.97,25.54-18.88
			C200.47,471.28,201.44,471.08,201.92,472.78z"/>
		<path class="st97" d="M269.3,612.89c2.08-0.48,5.34-3.35,3.43,2.74c-1.17,3.7-1.16,7.87-3.08,11.63
			c-1.68-4.78,0.74-9.71-0.25-14.48L269.3,612.89z"/>
		<path class="st95" d="M218.76,611.9c0.03-6.02,3.37-10.79,5.18-16.15c0.19-0.56,0.66-1.35,1.5-0.91c0.65,0.34,0.93,0.97,0.63,1.74
			C224,601.86,222.64,607.49,218.76,611.9z"/>
		<path class="st98" d="M369,282.44c-2.23,3.75-4.07,6.81-5.88,9.9c-0.64,1.09-1.35,2.34-2.66,1.49c-1.65-1.07,0.05-2.04,0.46-2.92
			c0.85-1.79,2.19-2.83,1.18-5.71C361.48,283.44,365.3,281.62,369,282.44z"/>
		<path class="st98" d="M90.79,465.95c1.55-3.75,4.65-3.37,6.84-4.48c2.07-1.05,4.43-1.48,6.69-2.06c1.13-0.29,2.77-1.92,3.34,0.2
			c0.47,1.76-1.61,1.87-2.73,2.25C100.46,463.38,96.1,465.36,90.79,465.95z"/>
		<path class="st95" d="M207.94,221.13c-0.2,0.56-0.23,1.18-0.52,1.38c-0.6,0.4-1.3,0.26-1.7-0.43c-2.58-4.46-5.14-8.92-7.69-13.4
			c-0.36-0.64-0.43-1.37,0.23-1.84c0.64-0.45,1.25-0.19,1.64,0.49C202.57,211.91,205.24,216.5,207.94,221.13z"/>
		<path class="st99" d="M385.3,223.09c-0.83,6.03-3.89,11.08-6.65,16.27c-0.13,0.24-1.01,0.32-1.3,0.11
			c-0.93-0.68-0.33-1.58-0.01-2.32C379.45,232.19,381.52,227.21,385.3,223.09z"/>
		<path class="st100" d="M304.9,630.7c-1.93-5.14-1.87-15.37-0.15-19C306.49,617.63,306.57,622.91,304.9,630.7z"/>
		<path class="st62" d="M235.13,164.46c3.9,4.72,4.52,10.79,6.22,16.4c0.1,0.33-0.27,1.12-0.57,1.23c-0.63,0.23-1.29,0.01-1.56-0.81
			C237.4,175.81,235.21,170.44,235.13,164.46z"/>
		<path class="st24" d="M355.7,164.85c0.83,6.48-1.8,12.14-3.53,18.05C350.78,176.3,353.41,170.64,355.7,164.85z"/>
		<path class="st65" d="M147.28,534.46c-3.49,5.27-8.15,9.06-13.32,12.19C137.23,541.1,141.74,537.14,147.28,534.46z"/>
		<path class="st101" d="M398.81,587.43c4.07,4.71,6.16,10.55,7.92,16.56C402.36,599.46,399.33,594.16,398.81,587.43z"/>
		<path class="st102" d="M292.34,219.67c1.73,5.97,1.75,12.12,2.11,19.25C291.17,234.97,290.25,225.68,292.34,219.67z"/>
		<path class="st103" d="M378.26,203.56c-1.33-0.42-1.07-1.43-0.79-2.15c1.78-4.7,3.62-9.37,5.48-14.03
			c0.25-0.62,0.61-1.26,1.45-1.07c0.86,0.19,1.03,0.94,0.79,1.58c-1.9,5.02-3.85,10.02-5.84,15
			C379.21,203.24,378.57,203.38,378.26,203.56z"/>
		<path class="st57" d="M345.92,209.76c-1.06-6.14,1.15-11.64,2.57-17.28c0.08-0.33,0.76-0.69,1.13-0.66
			c0.32,0.03,0.88,0.63,0.85,0.93C349.83,198.68,348.38,204.37,345.92,209.76z"/>
		<path class="st33" d="M450.43,488.24c-0.69-2.05,0.11-2.66,1.94-2.27c3.88,2.6,7.78,5.17,11.62,7.83
			c0.73,0.51,1.91,1.21,0.93,2.43c-0.67,0.83-1.53,0.15-2.21-0.28C458.61,493.4,454.52,490.82,450.43,488.24z"/>
		<path class="st99" d="M288.87,171.89c-2.71-4.89-3.3-12.89-1.57-19.59C289.62,159.56,289.06,165.74,288.87,171.89z"/>
		<path class="st104" d="M347.29,536.1c-0.28-4.72-2.96-8.75-3.17-13.61c4.31,3.33,3.9,9.22,6.28,13.58
			c-0.41,1.17,1.76,2.95-0.27,3.47C347.9,540.12,348.42,537.13,347.29,536.1z"/>
		<path class="st93" d="M198.29,275.94c-2.56-1.11-4-3.54-5.79-5.56c1.64-1.59,2.97-4.03,5.77-2.13
			C202.07,270.83,198.63,273.38,198.29,275.94z"/>
		<path class="st92" d="M226.17,508.16c-0.58,0.98-5.06,7.92-5.66,8.75c-1.2,1.68-2.35,3.42-3.73,4.92
			c-1.45,1.58-2.03,5.83-4.49,4.07c-1.53-1.1,1.69-3.86,2.81-5.82c1.28-2.24,6.92-10.25,8.44-12.33c0.4-0.54,0.96-1.11,1.69-0.68
			C225.63,507.3,225.88,507.8,226.17,508.16z"/>
		<path class="st105" d="M293.96,247.12c2.25,4.6,2.26,15.52,2.13,20.45c-0.01,0.36-0.6,0.89-1.01,1.02
			c-0.82,0.26-1.14-0.48-1.25-1.16C293.03,262.67,292.97,251.92,293.96,247.12z"/>
		<path class="st61" d="M269.4,612.77c-2.16-1.65-5.15-2.24-6.11-5.44c-0.29-0.96-1.01-2.08-0.26-2.84
			c0.88-0.89,2.35-0.64,3.23-0.01c2.81,1.98,4.06,4.77,3.04,8.41C269.3,612.89,269.4,612.77,269.4,612.77z"/>
		<path class="st35" d="M194.55,462.91c0.15,0.86-0.37,1.29-0.93,1.66c-2.81,1.84-13.62,9.67-16.45,11.48
			c-0.56,0.36-1.22,0.66-1.73-0.09c-0.46-0.68-0.3-1.34,0.33-1.79c3.03-2.12,14.05-10.24,17.13-12.28
			C193.82,461.26,194.39,461.86,194.55,462.91z"/>
		<path class="st106" d="M304.76,188.13c-2.29-3.97-1.2-8.29-1.15-12.5c0-0.28,0.71-0.82,1.03-0.78c0.99,0.13,1.14,1.07,1.27,1.94
			C306.52,180.61,306.38,184.37,304.76,188.13z"/>
		<path class="st107" d="M516.31,409.32c3.51-2.12,7.07-0.76,10.6-0.55c0.89,0.05,1.65,0.45,1.46,1.59
			c-0.14,0.82-0.84,1.05-1.53,1.03C523.26,411.28,519.7,411.11,516.31,409.32z"/>
		<path class="st66" d="M170.16,558.75c-1.26,4.68-4.17,7.75-7.82,10.13C163.46,564.16,166.41,561.07,170.16,558.75z"/>
		<path class="st108" d="M145.92,222.75c3.86,1.08,5.97,4.26,8.36,7.09c0.49,0.58,0.83,1.18,0.35,1.85
			c-0.74,1.03-1.5,0.33-2.09-0.22C149.87,229,147.24,226.48,145.92,222.75z"/>
		<path class="st109" d="M103.86,241.79c-2.07,0.15-4-0.2-4.25-2.64c-0.25-2.44,1.96-2.63,3.41-2.67c1.79-0.05,3.91,0.7,3.97,2.96
			C107.04,241.03,105.62,242.19,103.86,241.79z"/>
		<path class="st76" d="M201.01,544.68c-1.35-0.29-1.62-1.13-0.88-2.25c1.78-2.72,3.58-5.44,5.48-8.07
			c0.66-0.91,1.68-1.33,2.21,0.24C208.12,535.51,201.92,544.56,201.01,544.68z"/>
		<path class="st110" d="M186.45,299.09c3.88,1.26,6.21,5.06,9.8,6.79c-0.02,0.52,0.1,1.41-0.1,1.5
			C193.27,308.69,186.35,302.74,186.45,299.09z"/>
		<path class="st107" d="M522.55,353.38c1.39,0.23,3.31-1.04,3.64,0.63c0.48,2.47-2.06,1.67-3.19,2.03
			c-2.17,0.69-4.51,0.81-6.78,1.12c-0.85,0.12-1.76-0.01-1.87-1.12c-0.11-1.11,0.79-1.39,1.61-1.54
			C518.2,354.09,520.47,353.73,522.55,353.38z"/>
		<path class="st43" d="M304.54,165.87c-1.75-4.31-1.09-8.66-0.1-13.02C306.65,157.16,306.6,161.5,304.54,165.87z"/>
		<path class="st83" d="M354.18,609.68c2.79,4.95,3.5,9.21,3.59,13.98C354.8,621.31,353.35,616.01,354.18,609.68z"/>
		<path class="st111" d="M352.98,599.65c0.29,1.25,0.21,1.96-0.47,2.29c-1.01,0.48-1.56-0.3-1.82-1.11
			c-0.52-1.64-1.37-3.38-1.22-4.98c0.2-2.2-2.88-5.44,0.18-6.19c1.98-0.49,1.84,3.79,2.61,5.93
			C352.78,597.01,352.82,598.64,352.98,599.65z"/>
		<path class="st112" d="M187.96,595.35c-0.8-0.33-1.52-0.86-1.04-1.89c1.52-3.27,3.08-6.55,5.39-9.3c0.73-0.87,1.51-0.55,1.95,0.33
			C194.76,585.5,189.04,595.28,187.96,595.35z"/>
		<path class="st63" d="M186.85,187.15c4.31,2.69,5.11,7.07,7.35,10.28c0.19,0.28,0.06,1.07-0.18,1.39
			c-0.52,0.68-1.2,0.43-1.65-0.16C189.92,195.49,187.57,192.26,186.85,187.15z"/>
		<path class="st113" d="M492.76,289.6c3.28-4.06,6.86-5.54,10.46-6.98c0.73-0.29,1.36-0.05,1.56,0.71c0.1,0.39-0.13,1.17-0.42,1.34
			C500.97,286.55,497.88,289.24,492.76,289.6z"/>
		<path class="st98" d="M416.39,290.95c0.05,1.16-7.57,8.15-8.81,8.1c-0.85-0.03-1.41-0.9-1.07-1.33c2.45-3.12,5.3-5.8,8.58-7.89
			C415.7,289.45,416.27,290.15,416.39,290.95z"/>
		<path class="st114" d="M98.4,374.1c-4.27,2-8.29,0.63-12.3-0.88C90.32,371.86,94.43,372.01,98.4,374.1z"/>
		<path class="st107" d="M521.33,374.78c-1.62-0.71-4.45,1.29-4.71-0.98c-0.27-2.39,2.81-1.51,4.33-1.82
			c2.43-0.5,7.01-1.42,6.98,0.64C527.87,375.84,523.66,373.93,521.33,374.78z"/>
		<path class="st115" d="M128.57,452.26c-3.77,3.88-7.93,3.99-11.67,5.1c-0.28,0.08-0.95-0.38-1.07-0.73
			c-0.27-0.84,0.41-1.28,1.01-1.54C120.26,453.58,123.62,451.8,128.57,452.26z"/>
		<path class="st77" d="M235.12,619.83c-0.88-5.52,1.18-8.99,2.38-12.66c0.27-0.83,0.86-1.12,1.52-0.95c0.8,0.2,0.82,1.01,0.65,1.7
			C238.71,611.68,237.97,615.55,235.12,619.83z"/>
		<path class="st95" d="M442.77,562.75c3.57,2.44,6.02,5.89,8.78,10.37C446.55,571.36,443.95,568.27,442.77,562.75z"/>
		<path class="st116" d="M144.33,286.99c3.87,0.22,6.7,2.55,9.57,4.8c0.69,0.55,1.31,1.21,0.62,2.16c-0.52,0.71-1.22,0.41-1.79,0.04
			C149.71,291.99,146.33,290.51,144.33,286.99z"/>
		<path class="st117" d="M100.79,302.17c5.45-1.03,8.49,2.14,12.02,3.5c0.65,0.25,0.9,1.19,0.4,1.71c-0.36,0.37-1.26,0.53-1.75,0.33
			C108.12,306.36,104.67,305.22,100.79,302.17z"/>
		<path class="st62" d="M174.62,530.41c1.56-5.8,5.06-8.06,8.07-10.71c0.24-0.22,0.97-0.12,1.28,0.12c0.69,0.52,0.47,1.25-0.02,1.8
			C181.38,524.47,178.88,527.4,174.62,530.41z"/>
		<path class="st118" d="M228.32,587.17c-0.23-5.11,2.2-8.49,3.78-12.13c0.14-0.33,0.79-0.62,1.18-0.58
			c0.82,0.08,1.08,0.87,0.8,1.53C232.57,579.63,232.14,583.93,228.32,587.17z"/>
		<path class="st77" d="M415.65,199.2c0.16-4.3,2.34-7.32,4.46-10.38c0.47-0.68,1.09-1.55,1.93-0.75c0.34,0.32,0.43,1.4,0.19,1.87
			C420.46,193.37,418.74,196.86,415.65,199.2z"/>
		<path class="st95" d="M158.46,380.92c-1.53-1.15-3.37-0.5-5.01-0.99c-0.37-2.69,1.45-2.16,2.86-2.16c1.98,0,3.96,0.06,5.93,0.09
			c0.73,1.29,3.58-0.15,3.08,2.17c-0.39,1.81-2.58,0.47-3.86,1.03C160.43,381.88,159.43,381.69,158.46,380.92z"/>
		<path class="st51" d="M461.25,366.79c-2.25,0.23-4.5,0.54-6.76,0.65c-1.85,0.08-2.44-0.75-1.12-2.44
			c3.77-0.27,7.48-1.61,11.38-1.22C464.8,366.95,462.08,365.45,461.25,366.79z"/>
		<path class="st119" d="M326.96,242.21c1.37,5.03-2.44,18.93-3.01,22.92c-0.04,0.28-0.8,0.7-1.14,0.62
			c-0.34-0.07-0.85-0.72-0.81-1.06C322.44,260.68,324.03,246.42,326.96,242.21z"/>
		<path class="st120" d="M478.34,314.83c-2.93,3.52-6.85,4.74-11.06,5.26C469.96,316.1,474.11,315.44,478.34,314.83z"/>
		<path class="st121" d="M259.97,537.83c0.38,4.61-1.35,8.56-3.64,12.32C255.7,545.48,257.03,541.44,259.97,537.83z"/>
		<path class="st33" d="M396.83,256.34c-0.43,4.98-3.92,7.69-6.83,10.83C390.44,262.21,393.38,259.09,396.83,256.34z"/>
		<path class="st114" d="M486.75,239.62c3.72,1.01,7.07-1.82,8.7,2.34c0.42,1.07-0.48,2.13-1.44,2.38
			C490.79,245.19,489.12,242.91,486.75,239.62z"/>
		<path class="st96" d="M137.41,333.59c-4.03,1.13-7.23-1.35-10.75-2.41c-0.71-0.21-1.18-0.71-0.93-1.51
			c0.24-0.75,0.94-0.95,1.61-0.77C130.91,329.84,134.49,330.79,137.41,333.59z"/>
		<path class="st122" d="M472.27,477.67c-1.71,0.46-3.4,2.18-5.16,0.09c1.56-0.54,2.02-2.14,2.91-3.34
			c0.67-0.91,1.45-2.17,2.76-1.02c0.93,0.82,2.66,1.13,2.31,2.94C474.78,477.96,473.34,477.52,472.27,477.67z"/>
		<path class="st95" d="M132.11,362.35c-5.5,1.33-9.35-0.14-13.14-1.96C123.24,358.98,127.21,359.66,132.11,362.35z"/>
		<path class="st59" d="M125.69,163.8c1.16-3.04,4.3-2.57,5.98-4.49c0.57-0.66,1.95-0.32,1.73,0.76c-0.36,1.76-0.54,4.21-2.65,4.52
			C129.25,164.81,127.47,165.04,125.69,163.8z"/>
		<path class="st31" d="M179.26,599.37c-2.37,0.11-4.03-1-4.62-3.46c-0.35-1.48,0.73-1.78,1.81-1.59c2.25,0.39,4.83,0.67,5.34,3.6
			C182.13,599.87,180.17,598.96,179.26,599.37z"/>
		<path class="st123" d="M221.51,215.17c-0.89-0.41-1.14-1.19-1.07-2.14c0.31-0.04,0.78,0.04,0.9-0.15
			c1.28-1.85,3.06-2.63,5.01-1.95c1.17,0.41,1.31,2.26,0.79,3.18C225.76,216.53,223.53,215.56,221.51,215.17z"/>
		<path class="st124" d="M305.39,247.09c0.23,3.11,0.46,14.23,0.69,17.34c0.08,1.07-0.43,1.67-1.35,1.85
			c-0.84,0.16-1.17-0.41-1.15-1.23C303.7,261.68,303.04,250.2,305.39,247.09z"/>
		<path class="st125" d="M183.73,455.05c1.62-0.44,2.18-0.08,2.31,0.68c0.07,0.41-0.15,1.2-0.42,1.31
			c-2.71,1.11-7.76,5.86-10.96,5.66c-0.74-0.05-1.3-1.06-0.74-1.45C176.36,459.58,181.94,456.13,183.73,455.05z"/>
		<path class="st126" d="M80.95,410.32c3.87-2.51,7.95-2.16,12.08-1.14C89.16,411.62,85.05,410.84,80.95,410.32z"/>
		<path class="st114" d="M203.04,628.75c-1.23,1.76-2.76,2.92-4.84,3.03c-1.03,0.05-2.22-0.27-1.93-1.62
			c0.49-2.31,2.43-3.2,4.36-3.45C201.54,626.59,202.82,627.24,203.04,628.75z"/>
		<path class="st85" d="M457.25,182.43c-0.51,1.79-1.88,2.63-3.29,2.73c-1.45,0.1-3.04-0.71-3.07-2.57
			c-0.02-1.38,0.78-2.89,2.41-2.59C454.8,180.3,456.52,180.6,457.25,182.43z"/>
		<path class="st127" d="M315.47,247.19c1.05,3-0.23,14.94-0.7,17.86c-0.14,0.87-0.32,1.81-1.47,1.63
			c-0.87-0.13-0.93-0.94-0.81-1.59C313.06,262.12,313.56,249.9,315.47,247.19z"/>
		<path class="st43" d="M314.58,530.39c-1.82-3.09-0.95-6.66-1.35-10c-0.09-0.73,0.15-1.37,0.97-1.44c0.79-0.07,1.17,0.39,1.22,1.21
			c0.19,3.37,0.38,6.73,0.56,10.1C315.51,530.3,315.04,530.34,314.58,530.39z"/>
		<path class="st128" d="M425.41,539.15c-0.98-0.6-1.89-1.27-2.21-2.53c-0.72-2.55,1.26-3.97,2.16-5.84l0,0
			c1.67,1.42,3.33,2.83,5,4.25C428.68,536.35,425.53,535.69,425.41,539.15z"/>
		<path class="st94" d="M410.48,544.54c-1.67-6.58,2.64-3.28,4.9-3.35C416,545.06,415.83,545.18,410.48,544.54z"/>
		<path class="st129" d="M90.58,197.78c-0.38,2.27-1.76,2.55-3.34,2.53c-1.58-0.01-2.61-1-2.6-2.48c0.02-2.13,1.78-2.2,3.21-2.03
			C89.05,195.94,90.54,196.09,90.58,197.78z"/>
		<path class="st125" d="M227.36,619.78c-2.05,1.77-3.77,3.35-5.9,1.1c-0.65-0.69-1.24-1.97-0.05-2.72
			C223.62,616.75,225.5,617.59,227.36,619.78z"/>
		<path class="st89" d="M350.89,199.78c1.41-2.1,2.9-3.64,5.5-2.17c0.73,0.41,1.54,1.28,0.85,2.06
			C355.37,201.79,353.23,201.54,350.89,199.78z"/>
		<path class="st130" d="M391.34,172.64c-0.72,1.89-0.72,4.5-3.08,5.29c-1,0.34-1.22-0.98-1-1.8c0.53-1.97,0.91-4.2,2.81-5.19
			C391.01,170.45,391.36,171.56,391.34,172.64z"/>
		<path class="st131" d="M257.09,234.74c-0.46,0.05-0.68,0.14-0.78,0.07c-2.25-1.74-2.73-4.18-2.3-6.91
			c0.04-0.25,1.05-0.65,1.14-0.53C256.97,229.5,257.97,231.88,257.09,234.74z"/>
		<path class="st132" d="M378.5,617.35c-1.09,0.66-2.08,1.7-3.15,1.81c-1.38,0.13-3.07-0.2-3.03-2.41c0.03-1.59,1.14-1.95,2.36-1.97
			C376.26,614.76,377.49,615.45,378.5,617.35z"/>
		<path class="st133" d="M111.25,285.9c-0.32,1.13-1.03,1.54-1.92,1.2c-1.85-0.69-3.95-1.2-4.85-3.29
			c-0.36-0.83,0.46-1.74,1.46-1.38C107.95,283.16,109.96,283.97,111.25,285.9z"/>
		<path class="st104" d="M351.59,534.35c2.5-1.59,5.11-3.6,5.77,1.73C354.93,537.43,352.7,538.01,351.59,534.35z"/>
		<path class="st134" d="M337.67,160.03c0.65-1.28-0.27-3.89,2.12-4.23c1.13-0.16,1.2,1.5,0.95,2.47c-0.46,1.73,0.25,4.37-1.88,4.89
			C337.49,163.49,337.72,161.48,337.67,160.03z"/>
		<path class="st135" d="M506.95,438.58c-1.44-0.15-3.1-0.82-3.28-2.28c-0.21-1.73,1.76-1.64,2.9-1.94c1.52-0.41,2.53,0.43,2.68,2.1
			C509.4,438.11,508.14,438.29,506.95,438.58z"/>
		<path class="st136" d="M417.41,252.55c-1.05,2.49-2.48,4.33-4.51,5.51c-0.45,0.26-1.44-0.47-1.23-1.18
			c0.71-2.39,2.27-4.16,4.28-5.4C416.16,251.35,416.9,252.16,417.41,252.55z"/>
		<path class="st137" d="M270.96,164.06c-2.28-3.01-2.83-5.36-1.6-9.19C271.74,157.82,271.63,160.33,270.96,164.06z"/>
		<path class="st91" d="M370.92,617.19c-0.52,1.36-1.54,2.1-2.94,2.03c-1.19-0.06-2.41-0.49-2.5-2c-0.1-1.74,0.98-2.47,2.52-2.5
			C369.54,614.71,370.43,615.59,370.92,617.19z"/>
		<path class="st34" d="M316.51,156.34c-0.47,2.07-2.12,1.7-3.55,1.77c-1.18,0.06-1.96-0.52-1.75-1.83
			c0.29-1.85,1.52-2.68,3.21-2.44C315.62,154,316.58,154.7,316.51,156.34z"/>
		<path class="st138" d="M469.05,532.85c3.17-0.81,5.33-2.02,7.16,0.45c0.36,0.49,0.25,1.35-0.49,1.73
			C473.24,536.32,471.46,534.96,469.05,532.85z"/>
		<path class="st139" d="M276.61,259.77c-0.33,1.19,0.7,3-0.83,3.54c-1.8,0.63-1.24-1.96-2.34-2.5c0.01-0.17-0.01-0.35,0.02-0.52
			c0.32-1.42-1.21-3.71,0.56-4.16C276.22,255.57,275.73,258.51,276.61,259.77z"/>
		<path class="st140" d="M433.47,530.74c-0.4-1.06-0.8-2.12-1.2-3.18c1.01-0.65,1.89-0.3,2.67,0.45c1.37,1.33,3.98,2.99,2.74,4.66
			C436.1,534.79,435.01,531.27,433.47,530.74z"/>
		<path class="st141" d="M162.36,615.55c1.32,0.11,2.49,0.42,2.49,1.95c-0.01,1.23-0.48,2.51-1.96,2.36
			c-1.23-0.13-2.92-0.28-3.04-1.89C159.73,616.43,161.2,615.88,162.36,615.55z"/>
		<path class="st44" d="M485.41,437.33c1.07-0.27,1.39-0.45,1.69-0.41c2.03,0.25,4.19,0.18,5.53,2.25c0.08,0.12-0.5,1.03-0.81,1.06
			C489.36,440.45,487.07,440.11,485.41,437.33z"/>
		<path class="st107" d="M372.39,563.71c0.24,0.25,0.52,0.36,0.86,0.33c0.12,0.32,0.22,0.65,0.36,0.96c0.86,1.93,2.41,3.72,1.2,6.08
			c-0.08,0.15-1.15,0.06-1.24-0.17C372.58,568.64,369.86,566.63,372.39,563.71z"/>
		<path class="st122" d="M442.28,358.58c0.92-1.7,2.43-2.02,4.1-1.95c0.34,1.01,2.8,1.38,0.78,3.09
			C445.07,361.49,443.66,360.14,442.28,358.58z"/>
		<path class="st130" d="M321.17,189.62c-0.83,1.34,0.28,4.09-1.85,4.25c-1.86,0.14-1.14-2.21-1.1-3.39
			c0.04-1.39-0.51-3.67,1.56-3.83C321.27,186.53,321.07,188.34,321.17,189.62z"/>
		<path class="st142" d="M88.8,240.61c-0.11,1.55-0.9,2.26-2.23,2.23c-1.3-0.02-2.88,0-3.21-1.64c-0.38-1.89,1.3-2.13,2.51-2.4
			C87.29,238.5,88.37,239.11,88.8,240.61z"/>
		<path class="st89" d="M234.54,211.68c2.81,0.58,2.77,3.15,3.35,5.18c0.15,0.52-0.11,1.54-0.49,1.79c-0.89,0.59-1.55-0.2-1.87-1
			C234.79,215.81,233.55,214.02,234.54,211.68z"/>
		<path class="st143" d="M332.29,270.33c-1.02-3.64,1.7-17.78,4.37-20.32C337.91,253.64,334.44,267.57,332.29,270.33z"/>
		<path class="st144" d="M93.8,337.7c-3.22,1.11-5.32,0.25-7.49-1.35C89.46,334.66,89.46,334.66,93.8,337.7z"/>
		<path class="st99" d="M505.78,499.27c-3.93,1.75-5.65-0.14-7.35-1.97c-0.15-0.16,0.15-1.22,0.34-1.26
			C501.51,495.53,502.96,497.74,505.78,499.27z"/>
		<path class="st96" d="M371.4,275.43c0.67-4.12,1.47-6.56,4.78-7.73C376.08,271.15,374.79,273.29,371.4,275.43z"/>
		<path class="st145" d="M295.41,518.23c0.36,2.22,1.23,4.46-0.31,6.91C293.17,522.51,293.7,520.33,295.41,518.23z"/>
		<path class="st134" d="M472.64,591.83c1.2-0.02,2.45,0.03,2.53,1.73c0.05,1.24-0.82,1.89-1.88,2.04c-1.53,0.21-2.7-0.51-2.83-2.17
			C470.35,591.96,471.74,592.14,472.64,591.83z"/>
		<path class="st146" d="M155.39,177.05c-3.16,1.32-5.12,1.82-6.65-0.46c-0.48-0.71,0.09-1.34,0.61-1.65
			C151.67,173.57,152.67,176.04,155.39,177.05z"/>
		<path class="st147" d="M269.59,230.28c-0.48-1.19-1.31-2.26-1.02-3.68c2.25,0.79,4.64,1.26,6.87,3.1
			C273.31,231.35,271.31,229.21,269.59,230.28z"/>
		<path class="st148" d="M150.25,634.32c2.03,1.35,4.43,0.8,4.73,3.3c0.12,1.05-1.13,1.7-2.2,1.71
			C149.98,639.35,150.44,637.16,150.25,634.32z"/>
		<path class="st149" d="M458.56,228.09c0.41-3.03,1.92-4.89,5.12-5.91C463.3,225.97,460.91,227.04,458.56,228.09z"/>
		<path class="st150" d="M438.36,367.02c1.25,0.57,5.55-1.14,5.74,0.77c0.27,2.7-4.85,1.1-6,2.38c-0.68-0.29-1.57-0.26-1.64-1.42
			C436.37,367.23,437.64,367.48,438.36,367.02z"/>
		<path class="st151" d="M263.12,529.35c-0.84-0.05-1.54-0.42-1.42-1.15c0.26-1.62,0.26-3.53,2.11-4.2c0.55-0.2,1.52,0.17,1.36,0.99
			C264.85,526.61,264.39,528.27,263.12,529.35z"/>
		<path class="st152" d="M183.47,602.02c-2.72,0.89-3.24,3.68-5.7,2.74c-0.22-0.09-0.3-1.35-0.07-1.88
			C178.66,600.68,180.29,600.47,183.47,602.02z"/>
		<path class="st50" d="M424.21,580.4c0.43,2.31,0.37,4.1-1.97,4.61c-0.97,0.21-2.34-0.01-2.26-1.23
			C420.16,581.21,422.44,581.26,424.21,580.4z"/>
		<path class="st153" d="M167.75,301.03c-0.48,0.51-0.96,1.01-1.44,1.52c-1.55-1.3-5.5-1.85-4.18-3.86
			C163.58,296.47,165.95,299.73,167.75,301.03z"/>
		<path class="st99" d="M197.42,255.54c0.36,1.78-0.15,2.66-1.99,2.18c-1-1.42-2-2.84-3-4.26c0.36-0.84,1.05-1.04,1.83-1.1
			C195.31,253.42,196.37,254.48,197.42,255.54z"/>
		<path class="st154" d="M471.86,628.6c0.91,5.66-3.01,3.41-5.14,4.12C467.94,630.52,470.92,631.23,471.86,628.6z"/>
		<path class="st155" d="M267.1,626.02c-1.76,0.32-3.45,1.57-4.75-0.61c-0.22-0.37,0.16-1.7,0.51-1.83
			C264.84,622.86,266.33,623.48,267.1,626.02z"/>
		<path class="st156" d="M484.87,166.78c-0.03,1-0.37,1.79-1.35,1.73c-1.44-0.09-2.47-0.97-2.68-2.49
			c-0.12-0.89,0.66-1.67,1.43-1.74C483.87,164.14,484.21,165.73,484.87,166.78z"/>
		<path class="st157" d="M528.26,169.84c0.71,0.78,2.49,0.08,2.45,1.82c-0.02,0.93-0.08,2.21-1.6,1.87
			c-1.15-0.25-2.33-0.56-2.31-2.13C526.81,170.55,527.14,169.71,528.26,169.84z"/>
		<path class="st158" d="M377.51,174.6c-1.47,0.15-2.28-0.53-2.39-1.94c-0.08-1.1,0.83-1.46,1.61-1.49
			c1.13-0.04,2.38,0.14,2.59,1.68C379.53,174.34,378.22,174.21,377.51,174.6z"/>
		<path class="st122" d="M487.36,390.45c-4.45-0.38-8.98,0.68-13.36-0.89C478.46,389.78,483.01,388.39,487.36,390.45z"/>
		<path class="st159" d="M214.73,173.48c-0.3,1.26-1.13,1.62-2.22,1.36c-0.91-0.22-2.09-0.27-1.81-1.82c0.2-1.13,1.06-1.14,1.9-1.13
			C213.64,171.91,214.57,172.1,214.73,173.48z"/>
		<path class="st160" d="M467.1,524.14c-0.31,1.51-1.63,1.68-2.6,2.06c-0.94,0.38-1.51-0.63-1.69-1.48
			c-0.35-1.63,0.94-1.58,1.85-1.67C465.59,522.97,466.69,522.76,467.1,524.14z"/>
		<path class="st116" d="M381.92,293.73c1.44,0.15,1.68,0.85,1.39,1.48c-0.62,1.34-1.16,2.9-2.81,3.16
			c-0.66,0.1-1.55-0.63-1.27-1.13C380.03,295.86,381.16,294.69,381.92,293.73z"/>
		<path class="st115" d="M429.48,327.47c-2.05,0.24-3.82,1.19-5.04-0.87c-0.15-0.25,0.4-1.34,0.84-1.55
			C427.48,323.95,428.24,325.77,429.48,327.47z"/>
		<path class="st140" d="M408.95,610.09c-0.19,1.24-0.98,1.96-1.97,1.93c-1.15-0.03-2.34-0.73-2.23-2.12
			c0.08-1.01,1.09-1.65,2.17-1.54C407.92,608.47,408.67,609.02,408.95,610.09z"/>
		<path class="st141" d="M155.43,576.93c-0.14,0.96-0.7,1.67-1.54,1.65c-1.15-0.04-2.25-0.55-2.44-1.97
			c-0.15-1.09,0.68-1.47,1.5-1.52C154.16,575.02,155.1,575.56,155.43,576.93z"/>
		<path class="st161" d="M106,628.19c0.73,0.97,2.5-0.31,2.87,1.23c0.34,1.39-0.95,1.81-1.85,1.74c-1.01-0.07-2.49,0.06-2.67-1.57
			C104.24,628.6,104.96,628.09,106,628.19z"/>
		<path class="st162" d="M482.82,210.47c1.26,2.04,3.28,2.41,2.63,4.52c-0.13,0.43-1.59,0.87-2.12,0.6
			C481.56,214.7,482.26,213.07,482.82,210.47z"/>
		<path class="st163" d="M149.32,594.79c-0.36,1.04-1.06,1.62-2.18,1.56c-1.1-0.06-1.96-0.48-1.71-1.83
			c0.25-1.32,1.35-1.34,2.32-1.26C148.56,593.32,149.36,593.58,149.32,594.79z"/>
		<path class="st164" d="M367.74,564.96c-0.23,1.38-1.32,1.58-2.21,1.86c-1.33,0.42-1.82-0.69-1.86-1.73
			c-0.04-1.02,0.83-1.42,1.72-1.49C366.46,563.52,367.36,563.79,367.74,564.96z"/>
		<path class="st122" d="M464.38,476.43c-1.18-0.4-2.39-0.76-3.18-1.9c1.18-0.84,2.36-1.68,3.62-2.57
			C465.94,473.76,464.95,475.07,464.38,476.43z"/>
		<path class="st96" d="M283.53,193.59c0.97,0.22,1.93,0.46,1.91,1.5c-0.03,1.55-1.24,1.84-2.43,1.98
			c-1.01,0.12-1.58-0.41-1.65-1.44C281.24,193.86,282.54,193.83,283.53,193.59z"/>
		<path class="st165" d="M310.53,165.27c-0.31,1.7-1.28,2.33-2.78,2.19c-0.86-0.08-1.83-0.42-1.43-1.43
			c0.52-1.34,1.89-1.74,3.19-1.94C310.41,163.97,310.52,164.62,310.53,165.27z"/>
		<path class="st166" d="M470.07,488.9c-1.11,1.94-2.54,2.08-4.13,0.96c-0.61-0.43-0.7-1.26-0.07-1.72
			C467.44,486.98,468.84,487.43,470.07,488.9z"/>
		<path class="st109" d="M95.69,603.02c-0.26,1.37-1.33,1.26-2.24,1.23c-0.96-0.03-2.12-0.21-1.92-1.61
			c0.16-1.1,1.09-1.68,2.16-1.53C94.67,601.26,95.44,601.86,95.69,603.02z"/>
		<path class="st167" d="M459.3,188.47c0.91,0.11,2.05,0.27,1.68,1.28c-0.26,0.71-1.45,1.17-2.3,1.46
			c-0.63,0.21-1.24-0.26-1.23-1.12C457.48,188.73,458.37,188.48,459.3,188.47z"/>
		<path class="st168" d="M496.21,429.05c-0.09,1.33-0.91,1.78-1.97,1.86c-0.85,0.06-1.76-0.1-1.87-1.19
			c-0.14-1.45,1.07-1.52,1.97-1.76C495.23,427.7,495.93,428.03,496.21,429.05z"/>
		<path class="st99" d="M120.37,581.21c-0.2,1.23-1.08,1.6-2.04,1.76c-1.09,0.18-1.94-0.26-2.1-1.48c-0.11-0.92,0.36-1.67,1.31-1.76
			C118.73,579.62,119.72,580.08,120.37,581.21z"/>
		<path class="st169" d="M475.4,226.55c-0.18,1.59-1.07,2.04-2.05,2.18c-0.91,0.13-1.58-0.52-1.78-1.4
			c-0.29-1.22,0.62-1.45,1.45-1.45C473.88,225.87,474.94,225.59,475.4,226.55z"/>
		<path class="st170" d="M501.76,631.12c-1.01,2.18-2.48,2.3-4.08,1.32c-0.76-0.47-0.93-1.73-0.24-2.21
			C499.02,629.12,500.35,630.3,501.76,631.12z"/>
		<path class="st122" d="M440.18,363.78c-0.14,0.94-0.65,1.72-1.5,1.8c-1.1,0.1-1.31-0.84-1.08-1.77c0.22-0.86,0.71-1.62,1.68-1.55
			C440.13,362.33,440.23,363.04,440.18,363.78z"/>
		<path class="st2" d="M418.1,396.1c-1.16-3.19-3.37-6.25-1.8-10.89C418.22,389.29,418.86,392.57,418.1,396.1z"/>
		<path class="st24" d="M229.42,264.03c0.6-2.07-3.66-3.63-1.15-5.15c1.65-1,2.81,2.33,3.75,3.94
			c6.43,11.03,12.72,22.17,18.34,33.79c-7.25-7.14-10.84-17.07-16.74-25.21C230.83,269.84,229.33,267.44,229.42,264.03z"/>
		<path class="st171" d="M158.46,380.92c1,0.05,2.01,0.09,3.01,0.14c1.84,1.22,3.18,1.42,5.11-0.54c1.77-1.8,4.54-5.06,7.05-0.34
			c0.7,0.34,1.16,0.81,0.86,1.72c-1.13,2.74-3.38,5.88,1.94,6.47c0.48-1.94-3.89-5.43,1.66-5.14c1.27,0.07,2.77,0.62,3.14,2.15
			c0.48,1.92-1.61,1.16-2.29,2.07c-2.4,3.19-5.92,3.09-7.38,0.04c-1.71-3.56-3.6-2.84-5.88-2.07
			C161.59,386.79,161.01,382.13,158.46,380.92z"/>
		<path class="st86" d="M190.45,342.93c-7.98-3.67-15.97-7.33-23.95-11.02c-1-0.46-2.59-0.79-1.85-2.4
			c0.52-1.13,1.73-0.38,2.65,0.01c4.68,2.01,9.12,4.71,14.15,5.75c3.07,1.53,6.13,3.06,9.2,4.6
			C193.03,341.07,191.97,342.02,190.45,342.93z"/>
		<path class="st24" d="M246.1,267.24c0.42,0.6,1.01,1.22,1.37,1.97c3.61,7.6,7.19,15.21,10.75,22.84c0.33,0.7,1.21,1.53,0.2,2.27
			c-1,0.74-2.04,0.23-2.5-0.76c-3.77-8.17-7.49-16.37-11.17-24.59C244.26,267.9,244.93,267.39,246.1,267.24z"/>
		<path class="st98" d="M174.45,359.88c-5.84-1.68-11.68-3.36-17.52-5.05c0.12-0.52,0.25-1.05,0.37-1.57
			c8.94-0.12,17.06,4.82,25.87,5.5c0.45,1.53,0.63,2.81-1.58,2.38C179.21,360.68,176.83,360.3,174.45,359.88z"/>
		<path class="st94" d="M187.44,330.14c-3.42-2.1-6.86-4.16-10.25-6.33c-1.24-0.79-4.13-0.74-3.08-2.94
			c0.95-1.99,3.01,0.16,4.33,0.81c4.62,2.28,9.1,4.91,13.65,7.35c1.02,0.55,2.15,0.86,3.23,1.29c0.54,1.14,3.01,1.26,1.99,3.03
			c-1,1.72-2.32-0.18-3.42-0.55C191.7,332.06,189.59,331.04,187.44,330.14z"/>
		<path class="st24" d="M254.9,262.67c3.28,8,8.04,15.38,8.72,24.3C259.91,279.16,255.88,271.49,254.9,262.67z"/>
		<path class="st84" d="M221.32,301.77c-1.94,1.26-2.69,0.03-3.46-0.78c-4.13-4.3-8.24-8.63-12.31-12.99
			c-0.66-0.71-1.6-1.59-0.8-2.69c0.7-0.95,1.48-0.21,2.07,0.39C211.84,290.77,217.16,295.53,221.32,301.77z"/>
		<path class="st158" d="M201.79,296.62c5.85,5.05,11.7,10.11,17.81,15.39c-3.63,1.15-14.58-7.67-18.68-14.39
			C201.22,297.29,201.5,296.96,201.79,296.62z"/>
		<path class="st171" d="M229.42,264.03c1.4,2.45,2.79,4.91,4.19,7.36c-1.29,0.39-2.46,2.82-3.91-0.02c-1.07-2.1-3.64-2.32-5.2-3.84
			c-1.3-1.28-2.2-2.93-1.39-5.92C224.04,268.33,226.94,265.15,229.42,264.03z"/>
		<path class="st171" d="M182.46,375.62c-1-0.44-1.99-0.88-2.96-1.31c-1.91,1.19,2.85,3.57-0.73,4.38
			c-0.55,0.12-1.23,0.49-1.34-1.15c-0.13-2.02-1.65-3.94-2.56-5.9C180.58,369.36,182.8,370.52,182.46,375.62L182.46,375.62z"/>
		<path class="st172" d="M231.02,298.28c0.72,0.82,0.62,2.14-0.31,2.7c-0.46,0.28-0.96,0.22-1.5-0.43
			c-2.17-2.62-4.18-5.41-6.08-8.26c-0.61-0.91,0.52-2.05,1.09-1.48C226.61,293.18,228.8,295.75,231.02,298.28z"/>
		<path class="st38" d="M238.97,293.99c-4.25-1.53-7.49-6.12-8.31-11.43C234.65,285.58,236.74,289.36,238.97,293.99z"/>
		<path class="st171" d="M284.31,264.05c0.56,1.03-0.63,3.25,1.81,2.99c0.27,2.86-1.98,4.62-2.45,7.2
			C281.03,270.46,281.54,267.14,284.31,264.05z"/>
		<path class="st89" d="M201.96,312.53c4.14,0.43,6.18,2.75,8.47,4.52c0.67,0.52,1.28,1.19,0.41,2.08c-0.53,0.54-1.16,0.6-1.73,0.06
			C207,317.16,203.97,316.27,201.96,312.53z"/>
		<path class="st171" d="M187.59,373.79c-0.1,0.61-0.2,1.22-0.3,1.84c-2.02,1.9-4.03,3.8-6.46,6.09c0.05-2.54,2.36-3.93,1.63-6.1
			c0,0,0,0,0,0c1.57-0.11,3.36,0.36,3.54-2.39C186.06,372.24,186.46,372.27,187.59,373.79z"/>
		<path class="st171" d="M189.69,289.23c0.92,0.82,1.83,1.64,2.75,2.46c-1.11,2.3,1.42,4.54-0.13,7.23
			C190.46,295.82,190.34,292.43,189.69,289.23z"/>
		<path class="st173" d="M171.49,381.89c-0.29-0.57-0.57-1.14-0.86-1.72c0.14-0.08,0.28-0.18,0.43-0.23
			c1.89-0.69,3.74-0.72,5.44,0.55c0.15,0.12,0.18,0.8,0.02,0.95C174.97,382.94,173.17,381.74,171.49,381.89z"/>
		<path class="st174" d="M404.28,493.51c4.39,5.03,15.53,17.69,20,22.82c-3.98,2.5-10.64-10.15-12.89-10.4
			c-4.46-6.15-10.36-10.82-15.15-16.63c-0.73-0.89-2.81-1.64-1.37-3.19c1.33-1.44,2.36,0.52,3.24,1.3
			C400.27,489.32,402.24,491.46,404.28,493.51z"/>
		<path class="st36" d="M371.18,495.62c2.25-0.64,4.37-1.38,6.14,0.92c5.78,7.52,23.79,33.63,28.95,41.62
			c0.22,0.35,0.09,0.96,0.17,2.23c-2.88-1.04-3.9-3.52-5.22-5.4c-3.87-5.51-7.54-11.17-11.31-16.75
			C388.5,516.15,374.31,495.71,371.18,495.62z"/>
		<path class="st43" d="M403.29,478.33c3.64,3.47,18.29,17.15,21.79,20.76c1.16,1.2,4.18,2.33,2.73,4.17
			c-1.62,2.04-2.71-1.42-4.22-2.1c-1.11-0.51-2.05-3.85-3.36-0.18c-1.3,0.55-2.61,1.41-3.86-0.13c-1.13-1.4-0.95-2.71,0.15-4
			c-0.74-1.75-9.75-10.58-10.24-12.51C405.06,482.77,400.48,478.93,403.29,478.33z"/>
		<path class="st24" d="M388.49,539.17c-3.46-5.84-20.9-32.69-24.4-38.51c-0.49-0.81-0.89-1.48,0.02-2.19
			c0.58-0.46,1.35-0.65,1.74,0.02c3.64,6.19,21.53,33.24,24.47,39.83C389.71,538.61,389.1,538.89,388.49,539.17z"/>
		<path class="st31" d="M409.35,523.11c-4.57-4.51-20.58-24.59-24.55-29.7c-0.54-0.69-0.91-1.51-0.15-2.34
			c0.59-0.63,1.21-0.5,1.69,0.1c4.17,5.22,20.33,25.46,24.49,30.7C410.33,522.28,409.84,522.7,409.35,523.11z"/>
		<path class="st175" d="M412.29,460.33c6,1.97,24.69,16.52,30.15,19.51c0.6,0.33,0.99,1.07,0.41,1.69
			c-0.67,0.72-1.45,0.42-2.23-0.06c-4.38-2.72-8.77-5.41-13.16-8.11C426.71,472.46,411.75,461.71,412.29,460.33z"/>
		<path class="st148" d="M418.47,451.62c3.69,1.89,13.38,6.77,17.07,8.67c0.84,0.43,8.17,4.15,7.75,5.04
			c-0.54,1.14-8.27-2.51-8.96-2.84c-3.3-1.57-12.59-6.17-15.88-7.76C417.79,453.69,418.1,452.65,418.47,451.62z"/>
		<path class="st176" d="M368.64,498.59"/>
		<path class="st122" d="M423.49,473.88c-0.9,1.06-3.45-0.59-3.78,1.84c-0.02,0.15-1.21-0.83-1.23-1.7
			c-0.04-1.85,1.17-1.93,2.56-2.34C422.89,471.15,422.78,472.53,423.49,473.88z"/>
		<path class="st171" d="M425.37,530.78c0.45,2.44-1.46,3.88-2.16,5.84c-0.9-0.61-1.67-1.33-1.89-2.51
			C423.58,534.27,421.52,528.46,425.37,530.78z"/>
		<path class="st171" d="M333.27,525.49c0.92,1.91,1.47,3.9,1.29,6.07C331,530.83,331,530.83,333.27,525.49z"/>
		<path class="st177" d="M397.58,555.93c0.62,0.76,1.27,1.49,1.86,2.27c2.69,3.58,0,3.19-2.12,3.22
			C395.73,559.51,397.48,557.76,397.58,555.93z"/>
		<path class="st122" d="M428.46,438.68c0.13,1.85,0.26,3.64,0.4,5.62C425.46,441.13,425.46,441.13,428.46,438.68z"/>
		<path class="st122" d="M422.12,441.14c1.38,0.93,2.82,1.8,2.48,4.12C422.1,444.69,422.21,442.8,422.12,441.14z"/>
		<path class="st122" d="M413.46,492.25c1.14,0.88,2.37,1.66,3.41,2.67c0.61,0.59,1.54,1.65-0.34,1.93
			C414.03,496.42,413.59,494.45,413.46,492.25z"/>
		<path class="st122" d="M430.37,446.82c-0.14,1.3,0.36,3.3-1.35,3.35c-1.3,0.04-1.28-1.79-1.06-2.99
			C428.4,444.71,429.55,446.86,430.37,446.82L430.37,446.82z"/>
		<path class="st178" d="M433.29,447.33c5.36-0.64,12.22,4.85,15.64,6.25c0.49,0.2,1.21,0.73,0.8,1.63c-0.32,0.71-0.9,1.13-1.6,0.83
			C444.74,454.57,437.3,450.8,433.29,447.33z"/>
		<path class="st171" d="M442.02,499.97c1.82,2.74,5.77,2.17,7.34,5.31c-4.17-0.89-8.35-2.29-12.79-0.26
			C438.39,503.33,440.2,501.65,442.02,499.97z"/>
		<path class="st171" d="M468.52,435.05c1.73-0.21,3.43-0.28,4.84,1.11c-1.73,6.48-6.03,1.74-9.2,2.37
			C465.52,437.14,465.96,434.62,468.52,435.05z"/>
		<path class="st171" d="M150.53,325.45c1.49-0.08,2.77,0.51,3.95,1.41c0.11,0.14,0.19,0.29,0.32,0.4c1.56,1.38,3.11,2.73,1.9,5.26
			c-0.72,1.5-1.7,1.66-2.72,0.54c-1.43-1.58-5.44-1.59-3.12-5.62C151.1,327.02,150.65,326.13,150.53,325.45z"/>
	</g>
</g>
<path class="st0" d="M231.44,304.96c5.86,0.59,8.99,3.48,10.41,10.04c1.61,7.45-12.92,20.98-15.56,25.32
	c-12.8,21.12-16.79,30.71-30,51c-6.55,10.06-3.31,19.78,3.1,28.86c9.1,12.88,17.81,26.64,26.65,40.09
	c2.37,3.61,5.15,6.84,6.83,11.33c2.74,7.36,9.01,15.95,3.73,24.35c-4.23,6.73-9.03-2.4-12.3-8.79
	c-12.79-24.94-29.51-41.36-43.22-64.25c-10.57-17.65-10.51-22.91,0.98-39.24c14.39-20.46,27.11-44.03,40.2-66.93
	C225.42,311.22,228.2,304.43,231.44,304.96z"/>
<path class="st179" d="M389.65,308.33c16.07,27.51,31.43,53.9,46.87,80.2c5.46,9.31,5.23,15.68-2.24,22.81
	c-15.35,14.64-28.02,34.33-39.22,56.69c-2.69,5.37-5.36,16.79-12.46,8.2c-6.69-8.08,3.4-16.12,7.7-26.9c8.1-20.31,14.73-33.3,27-46
	c8.43-8.73,2.97-17.67-3.84-27.74c-7.48-11.06-14.22-23.36-21.51-34.76C386.25,331.94,383.44,322.63,389.65,308.33z"/>
</svg>
